<?xml version="1.0"?>
<svg xmlns="http://www.w3.org/2000/svg" version="1.2" baseProfile="tiny" width="800" height="577" viewBox="0 0 800 577" stroke-linecap="round" stroke-linejoin="round">
<g id="kec">
<path d="M 568.8072 418.9682 564.3487 417.4935 563.6364 417.2579 562.1129 416.8578 559.3481 416.0111 556.0384 414.9975 550.6521 413.6702 545.213 412.2648 538.9066 408.396 538.6887 408.2169 538.2596 407.8228 538.1472 407.7197 537.6435 407.1782 537.1815 406.5963 536.7649 405.9778 536.396 405.3263 536.0769 404.6458 535.8085 403.9401 535.5905 403.2129 535.5358 402.9149 535.4562 402.4808 535.3893 401.7419 535.367 400.9918 535.3894 400.2351 535.4569 399.4769 535.5687 398.7216 535.6034 398.5874 536.0244 397.2708 538.0045 391.0789 538.1191 389.9519 538.0902 389.6827 537.8527 387.4722 537.1693 384.0932 536.2048 381.5518 535.1982 379.797 533.8529 378.9514 529.2211 379.3691 528.3213 379.6682 521.1634 381.5752 520.6787 381.7229 516.8062 383.2416 516.7097 383.2875 512.3262 384.0009 511.9584 383.9959 511.6557 383.9918 501.6958 381.1155 501.6101 381.0936 498.7466 380.4385 494.4443 378.6097 492.9765 375.4255 493.0082 370.3784 495.1043 369.6054 493.0082 370.3784 492.9573 369.8201 492.9395 369.625 493.7091 362.857 492.3129 360.4643 490.0786 356.6353 489.6028 355.2975 489.5458 353.4182 489.6597 351.1402 489.8875 348.6345 489.8875 347.6094 489.4556 346.5794 486.1096 344.2417 481.6151 342.0176 481.3302 341.8766 477.2458 340.145 475.711 339.2354 474.9047 338.7577 472.4182 336.4034 473.3883 334.0213 474.0793 332.2685 474.1897 332.0213 476.7758 322.3391 477.6574 319.2977 478.7073 315.6757 479.9268 311.4685 481.0151 307.7139 481.897 304.6715 481.9955 304.4024 483.0273 301.3586 483.0469 301.3006 484.3184 296.4297 484.9043 294.287 485.0515 293.7486 486.2169 290.1125 486.3976 288.6457 487.5047 285.4277 487.6326 285.0558 488.7863 285.2242 496.6022 286.3703 500.7911 286.9845 504.9441 287.5935 509.9733 288.3309 509.9766 288.3156 513.2346 288.8405 514.0613 284.3944 513.1027 283.5366 512.5981 283.0321 511.917 282.4771 511.3017 282.102 511.5077 281.1382 511.9089 279.2615 510.9923 278.411 511.651 277.8924 511.7928 277.3962 511.9346 276.2382 512.3836 274.7021 512.6241 273.7063 512.9722 273.5673 516.9146 273.9967 519.5368 273.5827 523.106 273.0191 531.2185 272.9408 532.7221 271.1063 533.5734 270.0675 534.1667 269.1895 534.4989 268.5251 534.8697 267.6093 535.3259 265.7687 535.6518 265.3206 540.7841 266.176 541.753 264.1598 543.4131 260.7052 546.1609 255.5854 550.5774 254.2007 559.6016 252.4527 560.1323 247.6832 560.2581 247.4762 563.4639 248.2201 560.2581 247.4762 560.1323 247.6832 547.6556 247.6253 546.7833 247.5292 540.1956 246.8031 532.1615 245.9179 529.5313 245.6287 529.7224 241.5842 530.0515 237.9489 530.6335 234.6744 531.7346 227.0812 532.473 220.6577 532.9993 220.7902 532.473 220.6577 533.3951 213.4161 533.4051 213.3376 534.4851 206.5343 535.2065 199.7764 532.3419 192.4486 530.8424 188.6129 528.7161 188.4853 529.1908 184.5214 528.187 184.4083 528.2797 183.8291 528.5075 182.4054 529.2668 182.6611 530.6146 178.9885 521.37 174.1746 522.8695 171.2434 524.1794 167.3139 515.2496 164.8864 512.4479 164.1248 507.8016 163.6649 508.9392 156.6642 506.9961 155.5055 505.6524 154.3276 504.9739 152.4651 505.3513 148.9635 502.9374 148.7486 495.0691 150.8887 497.4724 146.5568 502.2374 137.5984 504.3822 132.6612 506.4657 127.3038 507.0398 125.8274 508.7159 122.1148 510.4853 115.0895 514.4815 104.6979 519.3198 88.2956 519.4511 88.3233 520.8594 88.6207 523.9778 82.7234 528.1519 77.6248 528.2419 77.7031 535.3795 73.9824 538.7584 71.9323 546.2757 64.1492 550.4842 61.3579 550.7862 61.5269 553.7902 63.2071 557.8722 65.3782 558.0556 65.859 559.4192 70.4818 559.1462 76.7539 559.7829 81.4439 559.9435 81.0821 564.1197 81.9173 571.4295 83.1461 572.1298 83.2478 578.8108 84.1806 581.1484 84.4943 580.7073 88.1465 580.6328 88.7632 580.6669 88.8119 582.4894 91.4572 583.5545 93.0017 584.0901 93.7783 590.3595 93.2002 592.7126 92.8186 593.9845 92.1191 595.8288 91.2923 597.8639 90.3383 598.8179 89.8932 600.7258 89.0028 604.9126 87.5228 605.1831 87.4272 613.0145 86.0942 618.976 83.5381 622.1075 83.5665 622.6114 83.571 622.9049 83.5737 624.2476 79.5706 624.8324 79.7553 625.8006 79.9831 626.6548 79.9831 627.566 79.8122 628.648 79.8122 629.5592 79.8122 630.4134 79.8692 631.588 79.8452 633.2039 79.8122 633.8304 79.8122 634.5707 79.5844 635.5958 79.1858 636.3361 79.0149 636.9546 78.9417 637.589 79.0719 638.3863 79.4705 638.9558 79.9261 639.5772 79.8429 640.4934 79.8122 641.1198 79.5275 641.4046 79.5275 642.5436 79.4705 643.5117 79.4705 644.9506 79.493 645.9035 79.4136 647.6012 79.86 649.0357 80.2109 650.4025 80.8942 651.3707 81.6915 652.6805 82.8305 653.7056 84.3112 654.5028 85.3932 655.0723 86.2474 655.5849 86.703 656.3928 87.046 657.1225 87.3864 658.0906 87.6142 659.1727 88.0698 660.0838 88.8671 661.4506 90.5756 662.2479 91.0881 663.4438 92.1132 664.355 92.2271 665.2662 92.0562 665.8357 92.0562 666.2913 92.341 666.9747 93.3091 667.6011 94.3342 668.0567 95.4732 668.6262 96.0427 669.1387 96.0427 669.7082 95.7579 670.3916 95.2454 671.1889 94.8467 671.8153 94.6759 672.9543 94.562 674.0242 94.409 673.8907 94.5838 674.3496 94.562 674.6156 94.6253 675.5455 94.8467 676.8553 95.5301 677.4248 95.9288 678.2221 96.4413 678.7346 96.8969 679.5889 97.5803 680.557 98.0928 681.2404 98.1498 681.9807 98.0359 682.2655 97.865 682.8919 97.5233 683.3475 97.4094 683.917 96.84 684.1122 96.5959 684.3726 96.2705 685.056 95.9288 685.9672 95.7579 686.2567 95.7097 686.9922 95.5871 687.8465 95.4732 688.5868 95.3023 689.0424 95.0176 689.498 94.7328 689.9536 94.1634 690.4661 93.423 690.58 92.7966 690.637 92.284 690.6817 91.7918 690.6939 91.6576 691.2577 91.5038 691.3204 91.4868 692.0037 91.259 692.3688 91.0764 692.4593 91.0312 692.9719 90.5756 693.3705 90.1769 693.94 89.7213 694.7373 89.0949 695.3637 88.5254 695.8763 88.1837 696.8444 88.0698 697.0388 88.0601 697.9834 88.0129 698.6668 87.9559 699.1793 87.4434 699.4071 86.8739 699.6918 86.2474 699.8627 85.621 700.0093 85.3802 700.66 84.3112 701.4573 83.9125 702.5393 83.9125 703.6783 84.539 704.7603 85.1085 705.6715 85.1085 706.491 84.9264 706.6966 84.8807 707.2661 84.3681 707.7818 84.0366 708.0633 83.8556 708.3352 83.8396 709.0315 83.7986 709.6579 84.1403 710.1705 84.482 710.683 84.9376 711.7081 85.2793 712.6193 85.8488 713.2457 86.4183 713.7582 87.3295 714.7264 88.6963 715.2389 89.2088 715.8084 90.12 715.7515 90.9742 715.7515 91.8284 715.4667 92.6257 715.2959 93.7078 715.4667 94.562 715.4098 95.3023 715.2517 95.7539 715.0111 96.4413 714.9971 96.4632 714.4986 97.2386 713.8721 98.7762 713.1888 99.3457 712.1106 99.9264 710.9347 100.3321 709.7379 101.1194 708.5741 101.9306 706.9813 102.1362 705.8993 102.4779 704.8742 103.1043 704.0485 103.716 703.3366 104.2433 702.881 104.6989 702.4254 105.724 701.9698 106.806 701.9698 107.8311 702.4823 108.7992 702.5393 110.2799 702.4254 111.305 701.9129 112.2162 701.1725 112.7857 700.2996 112.7857 699.521 112.7857 698.4959 112.9565 697.7779 113.1783 696.8401 113.468 697.7875 116.1165 697.8103 139.9334 704.5848 140.051 704.5723 144.6428 721.4079 144.4015 720.7009 160.9049 722.1297 161.0214 722.0728 161.7618 722.2436 162.5021 722.3006 163.2994 722.5853 164.4953 722.5853 165.8621 722.4145 167.2289 722.0728 168.4818 721.788 169.279 721.7311 170.3041 721.3894 171.7848 721.2755 174.0058 721.2186 174.9739 720.706 178.22 720.3643 182.0926 720.1365 183.4593 719.8518 185.4525 719.3392 187.7874 718.9406 189.382 718.542 190.4071 718.3711 191.66 718.4281 192.8559 718.1433 195.8172 718.485 197.6396 719.2253 199.1772 720.0226 200.2593 724.6414 205.5295 726.435 204.3935 727.9296 203.0185 728.647 202.2413 729.9025 202.0021 730.9787 202.0021 732.294 202.3011 732.9516 202.7196 734.1473 203.0783 734.9514 203.0661 735.1603 202.9315 735.7026 202.5012 736.202 202.0176 736.5231 201.6519 739.566 197.665 739.6931 197.4157 739.9933 196.9304 740.3322 196.5071 740.7297 196.1524 741.1663 195.8718 741.5984 195.6693 742.0116 195.5484 742.3927 195.5109 742.8998 195.5341 743.4001 195.6323 743.8851 195.8036 744.3468 196.0448 744.7775 196.3509 745.1701 196.7163 745.5185 197.1337 745.6021 197.2512 747.2735 198.0802 750.8114 199.8505 751.2798 200.0459 751.8497 200.2173 752.4289 200.322 753.0111 200.3595 753.5887 200.3307 753.9122 200.2746 754.1672 200.2092 754.7427 199.9896 755.2919 199.7065 755.8091 199.3626 756.2885 198.9612 756.725 198.5069 757.114 198.0048 757.4516 197.4608 757.7344 196.881 757.9599 196.2724 758.1262 195.6418 758.1302 195.6228 759.6142 190.0255 759.6613 189.8674 759.8369 189.4339 760.0701 189.0336 760.3557 188.6768 760.6882 188.3606 761.0579 188.1082 761.455 187.9331 761.8693 187.8418 762.2801 187.7832 762.6845 187.7981 763.0722 187.8863 763.434 188.0454 763.7607 188.2717 764.0444 188.5595 764.2781 188.9017 764.4568 189.2896 764.5767 189.7132 764.6186 189.9721 765.586 191.6452 765.7923 191.7626 766.2382 191.9546 766.5816 192.045 766.728 192.0964 767.2924 192.2177 767.8614 192.2636 768.4277 192.2324 768.9846 192.1236 769.5225 191.9393 770.0323 191.6826 770.5063 191.3578 770.9365 190.9695 771.3117 190.5202 771.6274 190.0179 771.8811 189.4724 772.0704 188.894 772.1218 188.6829 772.0409 187.7837 771.6427 183.0677 771.6394 183.059 771.5251 182.6556 771.477 182.2329 771.4966 181.8045 771.5828 181.3836 771.7326 180.9832 771.9406 180.6156 772.1994 180.2916 772.4998 180.0208 772.83 179.8768 773.1769 179.7845 773.5304 179.7477 773.5408 179.7475 774.0828 179.6343 774.8647 179.5213 775.653 179.4683 776.4513 179.4809 777.255 179.5588 778.0582 179.7009 778.8527 179.905 779.6331 180.1697 780.3942 180.4933 781.131 180.8736 781.8386 181.3081 782.3282 181.6536 782.6514 181.9567 783.087 182.2908 783.5515 182.5881 784.0358 182.8491 784.546 183.0369 785.075 183.1487 785.6153 183.1828 786.1596 183.1384 786.2647 183.1242 786.9353 183.2642 787.7621 183.4757 788.0236 183.5674 789.1703 184.034 790.3032 184.5641 791.4183 185.1557 792.0881 185.5459 792.7812 185.9918 793.62 186.5972 794.4259 187.2542 795.1947 187.9593 795.9221 188.7085 796.6041 189.4977 797.2369 190.3228 797.8172 191.179 798.3418 192.0619 798.8077 192.9665 799 193.3848 794.9293 197.9572 793.8285 201.1135 793.4868 202.5372 787.3933 228.7907 787.4502 229.1324 786.8807 231.4673 786.0265 235.4537 785.1153 238.3581 784.5458 242.0029 784.3325 247.5083 784.2619 249.3302 784.4889 253.9621 785.2292 259.7709 785.6848 262.2767 785.7417 265.4658 784.8306 268.655 784.0333 271.3885 782.5526 275.0333 781.7206 277.467 781.4423 277.9498 780.1038 280.2726 778.2814 283.6326 777.4753 285.1907 776.8577 286.3661 776.0035 287.2203 774.238 287.7329 772.5865 287.5051 769.796 286.8786 766.5499 286.0244 764.6706 285.5119 762.3927 285.2271 760.3994 285.2271 758.2923 286.0814 755.331 287.9607 751.2307 291.6054 748.611 294.3959 745.9344 298.9518 744.6815 302.5966 744.2259 303.7925 743.7134 306.6969 743.5995 310.1138 743.5995 314.3281 743.8273 317.9728 744.0551 324.408 744.112 328.6792 743.8273 331.128 742.5175 334.7158 741.4924 338.5314 740.6382 340.3537 739.5558 339.751 735.1141 337.6771 732.8361 336.9937 730.4443 336.8798 728.7928 337.1646 726.4579 337.4493 723.9521 337.3354 721.845 337.2215 719.0545 337.0507 715.2959 335.8548 712.7956 335.2779 711.9896 335.0842 710.4158 334.6528 709.5892 334.4045 706.3631 333.6709 704.4133 333.4057 704.176 333.3731 703.9191 334.2039 701.4893 342.0629 698.2243 341.7592 697.1232 344.8724 692.909 343.8473 691.7989 347.7124 700.0964 350.7711 711.4834 354.9681 725.332 360.2106 723.6615 362.4127 721.3835 362.7164 711.0188 361.0079 709.614 361.0079 712.8032 376.6119 708.0851 377.9662 706.5388 378.0926 701.7171 378.3963 693.3198 371.5116 692.4155 370.955 690.2568 370.0448 689.7199 369.7021 689.1504 371.2587 684.9346 371.8124 681.7625 372.9215 678.9527 376.0349 677.7041 377.9093 676.1718 380.8678 675.2201 384.7689 675.9156 387.2061 676.3044 389.111 675.5463 389.895 675.6244 390.0274 676.8021 392.0244 677.5729 393.0637 678.057 393.8938 679.0704 396.0328 679.882 397.7675 680.6891 399.7485 680.9809 401.1223 681.005 402.2787 681.0552 403.1687 681.1461 406.6511 680.9024 407.1807 680.3219 407.6997 679.8131 407.885 678.1841 407.7794 676.3413 407.8715 675.4102 407.7794 674.6748 407.2538 672.3543 404.7235 669.9502 402.9509 661.1177 399.7399 657.4126 398.922 650.3982 395.8376 643.44 391.9824 640.1019 398.6115 639.5822 399.1251 637.9876 398.4986 636.3931 397.8152 634.7416 396.8471 633.6026 396.1068 632.4636 395.7081 630.9829 395.4234 630.0148 395.4234 629.1606 395.5373 628.3063 395.9929 626.9395 396.3346 625.9145 396.7901 625.2311 397.3596 624.3199 397.8152 623.4087 398.7264 622.7253 399.4098 622.0989 400.0932 621.4155 401.1183 620.846 401.7447 620.2765 402.9406 619.707 404.3644 618.8528 406.9271 618.2264 409.9454 617.6968 412.731 617.6854 412.9064 617.5614 414.4856 617.3705 416.1953 617.2225 418.0124 617.1343 419.0442 617.1245 419.1589 617.0072 420.0032 616.774 421.5404 616.5669 422.6019 615.7395 424.3414 615.2067 425.4406 615.0017 425.8637 614.2228 427.084 612.766 428.0326 611.5959 428.8261 611.3534 428.959 607.7193 430.9026 602.5369 432.0985 599.8034 432.2694 599.269 430.1414 599.1226 429.6858 598.3974 427.2756 598.2048 426.6499 598.0132 426.0275 597.6266 425.0603 597.2808 424.4383 596.8686 423.882 596.325 423.2842 595.8257 422.6426 595.0835 422.1555 593.8609 421.3722 593.446 421.1185 592.1316 420.7903 591.4963 420.6259 590.598 420.4002 590.029 420.1917 588.5782 420.384 586.6223 420.5831 586.4476 420.5855 581.6323 420.6749 577.5889 420.7318 573.3288 420.23 568.8072 418.9682 Z"/>
<path d="M 454.8709 376.774 454.5603 377.7142 452.0476 384.8754 449.6524 384.2209 447.1776 383.5035 444.7208 382.7921 442.2968 382.0734 440.6774 381.6262 437.8666 380.9132 434.793 380.0496 433.0503 379.6077 432.096 379.3953 430.6329 378.893 429.067 378.3553 422.3191 375.9988 414.519 373.5089 411.9011 372.6732 406.396 370.8224 398.578 368.1001 398.107 367.9361 390.5924 365.3806 386.1317 363.8936 378.3961 362.28 381.2562 352.6855 381.7656 349.0869 379.3162 347.4611 377.7792 346.8563 374.0622 346.6674 372.0843 346.5669 371.3904 346.648 368.1526 346.6331 366.4842 346.6331 365.2608 346.6331 365.3427 344.4465 364.9656 343.7242 361.7765 342.6943 362.9902 335.417 362.5089 335.3124 353.3862 333.3294 352.7998 333.1958 341.5388 330.6305 341.2524 330.6022 339.3129 330.2569 334.0797 329.3253 334.2956 325.8317 334.2869 325.6898 334.3189 325.4444 327.5352 324.1485 322.8654 322.497 319.1095 320.9008 319.6377 317.589 312.777 315.9508 302.07 313.3942 302.1574 313.0962 303.0332 310.1075 304.8548 303.8914 306.225 299.2156 308.5964 290.699 309.0625 288.242 309.0285 288.247 292.1128 291.2935 286.4673 292.5674 281.5891 293.5688 279.9122 293.9131 271.6992 295.5815 271.4907 295.6056 269.1869 295.8711 256.1417 297.511 256.1193 297.5131 255.9644 297.5275 253.673 297.9299 241.3397 300.1257 237.2622 300.8517 230.205 303.0076 217.4595 305.846 217.4507 305.854 216.973 305.9834 216.5269 306.1069 216.3546 306.1542 215.705 306.3612 214.403 306.7192 213.9914 306.8404 212.9789 307.1187 212.5469 307.2224 211.8163 307.4128 211.3826 307.5106 210.3448 307.7955 209.4276 308.0215 209.0137 308.1301 208.5813 308.2266 207.8539 308.4098 206.4908 308.7289 205.0105 309.1046 204.0248 309.3325 203.604 309.4459 203.1619 309.5774 208.5753 307.0773 211.3888 305.3429 213.5595 304.0048 215.7444 302.4344 216.2073 302.0894 216.1794 302.0058 220.3537 298.8334 221.3972 298.2484 223.2222 296.2999 223.9516 294.579 224.0827 294.2695 224.6676 293.1804 226.2049 290.3179 228.2148 286.5754 228.4965 286.0511 229.7551 284.0133 230.2332 283.3148 231.3891 281.6259 232.3853 279.8203 234.0579 276.7887 236.456 272.1985 237.291 270.6604 238.6727 268.1151 239.2145 267.2317 241.2303 263.9451 241.3642 263.6939 243.4543 259.775 249.2288 249.6874 249.4631 249.2399 256.4648 235.867 256.4738 235.8558 262.0744 228.9131 260.6196 228.2493 260.0679 228.0917 258.5941 228.3522 257.3412 228.4661 256.2592 228.523 255.6897 228.6939 254.2091 229.662 252.2728 231.1427 250.9179 232.4552 250.4504 232.9081 249.4253 233.8193 248.5142 234.7874 247.8877 234.9013 246.3501 234.9583 244.0152 234.8444 242.9654 234.6276 242.1111 233.9442 241.5055 233.0559 241.2569 232.6914 240.9152 231.7802 240.004 231.3246 239.5484 231.4385 238.9789 231.8941 237.9539 232.8053 236.8718 233.147 236.0746 232.9192 235.3342 232.5775 234.9356 231.4954 235.1634 230.5273 235.5051 229.2175 235.9037 228.7049 236.4732 227.9076 236.8149 226.8826 236.7579 226.0853 236.6667 225.7752 236.4732 225.1171 235.9607 224.6046 234.8217 223.9212 233.4549 223.5226 231.0061 222.9531 229.4115 222.3266 228.6712 221.928 228.3994 221.5747 228.1017 221.1877 227.76 220.789 227.5322 219.9917 226.7349 219.1375 226.1654 218.0555 225.2542 217.2012 224.6278 216.2331 223.6597 215.7206 222.6346 215.0372 221.7234 214.126 221.097 213.5565 220.2997 212.987 219.5024 212.4175 218.7051 212.0758 218.0217 211.7911 217.4522 210.8799 217.3383 210.0257 217.1675 209.3423 217.2814 208.6019 217.5661 207.5769 217.3953 206.8935 217.1675 206.324 216.7689 205.9253 216.0285 205.4128 216.4845 204.4373 216.6295 203.9775 218.185 199.0427 218.3089 198.6497 219.4199 195.1252 219.5837 194.6058 220.8712 190.5212 221.1002 189.7795 225.0061 177.1278 225.0099 177.1299 225.0061 177.1278 228.75 164.1605 233.2602 150.379 233.3294 150.1676 237.0872 136.4313 239.1357 129.6254 241.235 122.6543 246.4078 105.19 247.4715 101.4708 248.9153 96.9675 250.0951 93.2739 251.3434 89.9087 252.0313 87.7729 252.3484 86.8529 252.5334 86.0897 252.5876 84.7168 252.5587 83.9899 252.5582 83.9716 252.564 83.8967 252.5821 83.8247 252.6119 83.7577 252.6511 83.701 252.7004 83.652 252.7581 83.6122 252.8138 83.5863 254.6892 83.1096 257.748 82.3436 258.3861 82.1494 258.6446 82.0413 260.2759 81.198 261.4995 80.1666 262.2692 79.2501 263.2375 76.4288 264.0294 74.2327 264.9994 71.5191 266.1761 70.3139 267.9298 69.1897 269.3122 68.9642 270.4972 68.9372 271.6317 68.8871 273.3647 69.1583 274.7643 69.6734 276.0782 70.5318 277.7465 72.0129 278.8367 72.8553 279.9319 73.7028 281.925 74.746 282.733 75.2019 282.7649 75.2192 283.2075 75.4246 283.6695 75.573 284.1453 75.6622 284.6272 75.691 285.1079 75.6592 285.5798 75.5674 286.0357 75.417 286.4463 75.223 287.7314 74.2389 289.2264 73.3716 289.5471 73.1959 290.1215 72.9266 290.7138 72.7075 291.3209 72.5416 291.9386 72.4307 292.5625 72.3764 293.1873 72.3792 293.8078 72.4394 294.4187 72.5564 295.0144 72.7293 295.5896 72.9564 295.799 73.0552 298.4896 74.3031 301.0286 76.1305 301.3066 76.3309 301.5755 76.5248 303.452 78.505 304.6004 80.8101 304.8466 81.92 304.999 83.9845 304.7915 87.0688 304.8885 88.0747 304.976 88.9638 305.2882 89.3836 305.6002 89.8033 306.6197 90.0917 310.0601 90.2679 311.1524 90.3262 312.2461 90.3853 312.4615 90.3676 312.4265 89.6269 312.8672 88.858 313.1996 83.9874 313.0904 81.9365 313.1643 80.8745 313.1646 80.1055 313.2388 78.2378 313.5896 77.3108 313.8315 76.5853 313.8744 76.4565 314.3964 75.6498 314.871 75.0803 315.9625 74.1311 317.2913 73.3718 317.9083 72.9447 318.6337 72.516 318.9523 72.3277 320.1388 71.9481 321.3252 71.7582 322.0551 67.7149 321.4573 63.2254 325.0574 60.0346 327.6577 57.5418 330.8571 56.2463 333.2572 54.3518 332.958 52.556 329.8598 50.9585 329.0607 49.362 329.6611 48.0654 333.8597 47.9674 334.975 46.462 334.6279 44.4652 331.2368 41.3387 328.8029 37.3445 329.0656 33.3514 329.9367 30.4003 334.7089 25.7554 336.9288 23.1242 337.6109 22.5758 340.5807 20.9428 344.7569 19.0066 346.0093 18.6786 351.5879 17.0278 351.6288 16.9944 352.3326 18.5534 352.335 18.8098 352.3371 19.0295 355.8067 28.406 359.426 28.0692 361.8626 25.7264 362.212 22.341 362.0409 15.6567 362.6505 13.9208 364.1297 13.0534 363.5216 11.1433 363.6097 8.3655 363.8713 7.0635 364.3066 6.022 365.2332 3.8873 366.3368 2.8353 366.3529 2.8304 372.4341 1 373.4272 4.7991 375.4731 12.762 375.5827 13.1477 376.9141 17.8296 377.485 20.1548 378.0034 22.4202 378.4656 24.4404 379.1161 27.2831 382.6284 36.9548 383.9758 40.5712 383.9779 40.5847 384.4376 42.1338 392.8522 40.6075 400.7871 41.5186 402.3995 42.4098 406.0628 46.7569 406.1353 46.921 406.2883 47.1833 406.4815 47.4258 406.7122 47.6407 406.9755 47.821 407.1828 47.9451 407.4081 48.0259 407.6427 48.0621 407.8778 48.0538 407.9121 48.0488 409.5572 47.783 410.1718 49.9331 411.2678 50.0361 415.6175 50.3797 418.0737 51.1959 421.1308 51.4885 425.1846 52.2996 427.8476 52.7071 428.9306 52.9898 430.8392 46.5711 430.9186 46.4918 433.4082 47.0686 437.3756 47.9876 437.3761 47.9821 439.0947 48.3146 440.1044 43.2269 440.5045 42.7859 441.2274 42.2615 442.0848 41.9038 443.044 41.7269 444.0695 41.7375 445.1234 41.9343 446.1671 42.3088 447.1616 42.8455 448.0691 43.5228 448.8534 44.3131 449.1921 44.7463 450.7903 47.4564 453.2759 50.5571 454.5075 51.755 456.0908 52.7634 464.1743 57.9122 464.6607 54.1377 465.1944 47.0409 465.2211 47.0139 465.2487 46.9365 465.2834 46.8709 465.3241 46.819 465.3693 46.7822 465.4178 46.7613 465.4681 46.757 465.5083 46.7652 498.2117 56.498 501.6258 57.5141 503.7146 58.2824 506.9424 59.4697 510.8972 60.9245 520.4512 64.4388 519.7351 67.5734 519.7272 67.6052 519.7256 67.638 519.7301 67.671 519.7407 67.703 519.7572 67.733 519.7788 67.7603 519.8051 67.784 519.8353 67.8032 519.8683 67.8175 519.8971 67.8253 521.5876 68.2335 529.9949 69.7956 528.0488 75.5861 528.068 76.0914 528.2419 77.6444 528.1519 77.5661 523.9778 82.6648 520.8595 88.562 519.4512 88.2647 519.3199 88.2369 514.4815 104.6393 513.4151 107.4124 510.4854 115.0308 508.7159 122.0561 507.0399 125.7687 506.4657 127.2452 504.3822 132.6026 502.2374 137.5397 497.4724 146.4981 495.0691 150.83 502.9374 148.6899 505.3514 148.9048 504.974 152.4064 505.6524 154.269 506.9961 155.4468 508.9392 156.6055 507.8016 163.6062 512.4479 164.0661 515.2496 164.8278 524.1794 167.2553 522.8696 171.1848 521.37 174.116 521.37 174.1746 530.6146 178.9885 529.2668 182.6611 528.5075 182.4054 528.2797 183.8291 528.187 184.4083 528.0554 184.3934 528.187 184.4083 529.1908 184.5214 528.7161 188.4853 528.7034 188.4821 528.7161 188.4853 530.8424 188.6129 532.3419 192.4486 535.2065 199.7764 534.4851 206.5343 533.4051 213.3376 532.473 220.6577 531.7346 227.0812 530.6335 234.6744 530.0515 237.9489 529.7224 241.5842 529.5313 245.6287 532.1615 245.9179 540.1956 246.8031 546.7833 247.5292 547.6556 247.6253 560.1323 247.6832 559.6016 252.4527 550.5774 254.2007 546.1609 255.5854 543.4131 260.7052 543.2717 260.9993 541.753 264.1598 540.7841 266.176 535.6518 265.3206 535.3259 265.7687 534.8697 267.6093 534.4989 268.5251 534.1667 269.1895 533.5734 270.0675 532.7221 271.1063 531.2185 272.9408 523.106 273.0191 519.5368 273.5827 516.9146 273.9967 512.9722 273.5673 512.6241 273.7063 512.3836 274.7021 511.9346 276.2382 511.7928 277.3962 511.651 277.8924 510.9923 278.411 511.9089 279.2615 511.5077 281.1382 511.3017 282.102 511.917 282.4771 512.5981 283.0321 513.1027 283.5366 514.0613 284.3944 513.2346 288.8405 509.9766 288.3156 509.9733 288.3309 504.9441 287.5935 500.7911 286.9845 496.6022 286.3703 488.7863 285.2242 487.6326 285.0558 487.5047 285.4277 486.3976 288.6457 486.2169 290.1125 485.0515 293.7486 484.9043 294.287 484.3184 296.4297 483.0469 301.3006 483.0273 301.3586 481.9955 304.4024 481.897 304.6715 481.164 307.2002 481.0151 307.7139 479.9268 311.4685 478.7073 315.6757 477.708 319.123 477.6574 319.2977 476.7758 322.3391 475.6428 326.5811 474.1897 332.0213 474.0793 332.2685 473.3883 334.0213 472.4182 336.4034 472.2504 336.4221 470.5633 335.6249 470.4746 335.583 467.6501 335.0456 467.3717 335.0173 466.0403 334.8817 462.5433 334.9755 462.3411 334.9896 461.0418 335.221 458.338 335.7894 456.9012 336.2064 456.923 336.2333 459.2767 340.2121 459.2526 341.1004 459.1887 343.4545 459.1766 343.836 458.9422 344.8393 457.3206 351.7797 456.7549 354.7262 456.7498 354.7476 461.1548 356.1412 459.75 360.773 459.2452 362.1073 459.1525 362.3525 457.901 367.4712 457.4274 369.4085 457.4233 369.4203 455.5672 374.7525 455.1248 376.0231 454.8709 376.774 Z"/>
<path d="M 296.7067 423.0716 296.0139 422.8875 295.6989 422.8119 295.5557 422.7827 289.9176 420.6873 289.8412 420.4304 289.7815 420.1411 289.7081 419.8667 289.664 419.6349 289.6038 419.4212 289.5431 419.1499 289.4787 418.957 289.4196 418.686 289.3734 418.5321 289.3218 418.3186 289.2853 418.2222 289.1828 418.0647 289.0661 417.9265 288.6354 417.4661 287.466 416.2122 287.03 415.7562 286.9093 415.6223 286.7996 415.4768 286.6723 415.2258 286.4804 414.7901 286.4175 414.6645 286.3627 414.5315 286.319 414.4494 286.244 414.2732 286.1992 414.1912 286.1403 414.0584 285.821 413.5011 285.7004 413.2317 285.603 412.9222 285.5371 412.5725 285.4819 412.3526 285.4433 412.1164 285.3753 411.8392 285.3359 411.6041 285.2796 411.3857 285.2272 411.0934 285.1606 410.817 285.1138 410.4366 285.1033 410.1933 285.1123 409.8822 285.1537 409.0593 285.1913 408.6357 285.2158 408.5008 285.3007 408.1645 285.4027 407.8988 285.4868 407.6508 285.5455 407.5101 285.6 407.3212 285.649 407.0655 285.6533 406.9727 285.6492 406.615 285.6387 406.4866 285.5979 406.2194 285.5585 405.8847 285.4653 405.456 285.4303 405.351 285.341 405.1467 285.0554 404.6479 284.957 404.5196 284.8407 404.346 284.7181 404.1374 284.5989 403.987 284.4536 403.8464 284.3641 403.7801 284.2212 403.6898 283.8351 403.501 283.0376 403.1377 282.4404 402.9054 282.0159 402.7734 281.5472 402.5934 280.5723 402.1772 280.3075 402.0418 280.2032 401.9756 280.1075 401.8847 280.0345 401.7776 280.0054 401.7186 279.9863 401.662 279.9655 401.5501 277.2274 399.9363 276.2457 399.4008 274.7435 398.2038 271.018 396.8224 267.5456 395.2448 266.6512 394.2242 266.2049 393.3317 265.7587 391.7252 265.1785 390.0741 264.286 387.932 263.9531 387.0846 263.7952 386.6825 262.9473 386.2363 261.43 385.9685 258.9756 385.5669 257.2004 385.5091 254.7362 385.4776 253.1297 385.5669 251.236 386.3682 251.127 386.3993 251.0799 386.4103 250.8643 386.4566 250.7697 386.4798 250.7171 386.4898 250.6293 386.5114 250.4067 386.5594 250.3189 386.5811 250.2663 386.591 250.2184 386.6037 250.0101 386.6494 249.9622 386.662 249.823 386.6906 249.7211 386.7157 249.6267 386.7351 249.5581 386.7392 248.9323 386.7485 248.8932 386.7505 248.8648 386.7547 248.7614 386.7838 248.6702 386.8131 248.6302 386.8238 248.5389 386.8529 248.4989 386.8635 248.4077 386.8926 248.3676 386.9032 248.2764 386.9323 248.2363 386.9429 248.1451 386.972 248.105 386.9827 248.0138 387.0117 247.8365 387.0639 247.7455 387.0933 245.8936 386.7806 245.4451 386.7557 244.5268 386.7046 243.5999 387.059 241.9452 387.6918 240.1228 388.6789 239.0597 390.2734 237.0096 391.7161 236.8435 391.7595 235.2631 392.1717 233.6686 392.0199 231.7703 391.3365 229.796 390.4253 227.0216 389.4542 226.7588 389.3623 224.253 388.4511 221.0532 388.0031 220.4564 387.9195 217.8747 387.7677 216.2802 388.2233 214.23 388.2992 213.4441 388.265 212.4836 388.2233 211.3446 388.6789 209.9019 389.3622 208.4592 390.1975 206.8646 390.6531 205.7256 390.805 204.5107 390.6531 203.3717 390.6531 202.0049 391.1087 198.8158 391.6402 196.3101 391.7921 194.6395 392.3995 192.8931 391.7921 191.7541 391.1846 191.2985 390.0456 191.0707 389.1345 190.6911 386.8565 190.4633 385.4897 190.4633 384.1427 190.4633 384.0857 189.4663 384.6355 189.5232 385.205 189.5091 386.0019 189.751 386.9704 189.751 388.2233 189.2954 389.9318 188.7259 392.0958 188.1565 394.3738 187.587 396.0253 187.187 397.3044 187.6822 401.4615 187.6899 401.5946 187.68 401.671 187.6805 401.7014 187.6639 401.7455 187.513 401.9827 187.3959 402.1156 187.2949 402.2444 187.2241 402.3166 187.1643 402.3479 187.1036 402.3705 186.9629 402.4086 186.7878 402.4462 186.2052 402.5875 185.7603 402.686 185.5068 402.7482 185.3769 402.7705 185.1596 402.7775 183.1685 402.7685 182.9719 402.761 182.7977 402.737 180.413 402.3001 180.1331 402.2381 179.8809 402.1531 179.2298 401.8959 179.0821 401.8331 178.9127 401.7496 178.3736 401.4589 178.0869 401.3121 177.3597 400.9176 177.0744 400.7703 175.315 399.7657 174.658 399.3735 174.287 399.1669 174.224 399.1447 174.1299 399.1237 173.5967 399.0314 173.4958 399.0072 173.294 398.9821 173.1551 398.9529 172.6872 398.8779 172.5525 398.8468 172.2668 398.8002 171.8813 398.7139 171.5841 398.7431 171.4273 398.7639 171.0332 398.791 170.8262 398.8157 170.514 398.8369 170.4127 398.8496 170.2242 398.8892 169.9099 398.9652 169.5894 399.0355 168.8368 399.2144 168.211 399.4176 167.829 399.5307 167.5869 399.6136 167.3022 399.7314 166.6412 400.0225 165.9561 400.3106 165.8819 400.3537 165.7105 400.7057 165.4836 401.4046 165.3621 401.8137 165.1483 402.4706 165.0959 402.6135 165.0488 402.7044 164.1836 404.0362 163.767 404.6416 163.2635 405.3781 163.0014 405.7174 162.94 405.7809 162.7695 405.9148 162.6447 406.0184 162.249 406.2841 162.152 406.3593 161.0498 407.4495 160.9796 407.5267 160.957 407.6133 160.9326 407.8094 160.9187 408.1939 160.8797 408.7402 160.8649 409.0496 160.838 409.244 160.8297 409.3441 160.8116 409.9809 160.7824 410.1983 160.7718 410.3812 160.7787 410.4687 160.7766 410.5102 160.7676 410.5403 160.7513 410.5645 160.7342 410.5776 160.7033 410.5834 160.6746 410.5746 160.6358 410.5496 160.4664 410.4382 159.8381 409.969 159.7479 409.9117 159.5921 409.8498 159.3511 409.7776 159.1844 409.7188 158.022 409.3171 157.9271 409.2971 157.8299 409.2911 157.216 409.3289 157.0955 409.3445 157.0239 409.3606 156.9783 409.3812 156.9167 409.4263 155.9658 410.3383 154.4465 412.0918 154.066 412.5559 153.8397 412.7877 153.0124 413.6926 152.9322 413.7572 152.8585 413.8031 152.5549 413.9335 152.366 414.0247 152.2689 414.0837 151.8634 414.3645 151.4149 414.7269 151.0204 415.0717 150.9421 415.1303 150.8673 415.1697 150.6588 415.391 150.5472 415.4948 150.5002 415.561 150.4579 415.656 150.5161 416.021 150.5158 416.6225 150.502 416.745 150.4843 416.8088 150.4362 416.9082 150.3516 417.0288 149.9677 417.4389 149.8745 417.4796 149.8335 417.4925 149.7927 417.4994 149.7636 417.4965 149.736 417.4788 149.2756 417.0785 149.1576 416.968 149.0069 416.8146 148.8709 416.6721 148.8191 416.6307 148.7587 416.596 148.6727 416.5577 148.2875 416.4037 148.1298 416.3597 148.06 416.3329 147.9045 416.2654 147.4436 416.0842 147.1654 415.9643 146.9732 415.8714 146.7982 415.7584 146.6301 415.6393 146.558 415.6025 146.5064 415.5848 146.4315 415.5792 146.3455 415.5935 146.0582 415.6822 145.7003 415.8021 145.6084 415.8266 145.544 415.8363 145.4097 415.8412 144.5576 415.8354 144.4485 415.8319 144.3688 415.8236 144.268 415.8025 144.1533 415.7652 144.0478 415.7261 143.9481 415.6801 143.7504 415.6085 143.5885 415.5653 143.3689 415.4886 143.246 415.4356 143.0798 415.3763 142.8651 415.2884 142.7372 415.2426 142.4831 415.1667 142.1053 415.0394 142.0408 415.0133 141.9822 414.9788 141.8458 414.8682 141.6506 414.7171 141.1392 414.3617 140.9213 414.1813 140.8488 414.1027 140.7243 413.9973 140.537 414.0877 140.4037 414.1656 139.8047 414.4512 139.5138 414.6077 138.6892 414.9965 138.3221 415.1901 137.485 415.5831 137.1268 415.7716 136.2651 416.1749 135.8872 416.3706 135.3031 416.6488 135.246 416.6896 134.9954 416.8468 134.4585 417.2081 134.311 417.2946 133.7742 417.6544 133.5054 417.8204 133.2103 418.0178 132.7763 418.2878 132.137 418.6994 131.6236 419.0396 131.3299 419.2269 130.7932 419.5837 130.5241 419.7479 130.108 420.0236 129.839 420.1874 129.3017 420.5422 129.1539 420.627 128.6166 420.9816 128.3484 421.1445 127.8007 421.4929 127.6326 421.5635 126.7259 421.8738 126.7465 422.0193 126.2223 422.3726 126.004 422.4951 125.9534 422.5146 125.9052 422.5265 125.7864 422.5322 125.1158 422.4825 124.9351 422.4749 124.0044 422.4091 123.7972 422.4018 123.4141 422.3728 122.8381 422.3869 123.0339 422.349 121.773 422.3449 121.5546 422.3375 120.0491 422.2369 120.2501 422.1935 118.6834 422.098 118.4569 422.0912 116.8902 421.9957 116.6637 421.9889 115.0971 421.8934 114.8705 421.8866 113.3039 421.791 113.0773 421.7843 111.5065 421.6886 111.2883 421.6822 109.7132 421.5863 109.4951 421.5799 108.5064 421.5184 108.0561 421.496 107.9235 421.4738 107.8274 421.4399 107.4839 421.2726 107.6028 421.1775 107.3463 421.1788 107.5499 421.1113 107.3101 421.0978 107.3027 421.0265 107.313 420.604 107.3282 420.5085 107.3552 420.4477 107.4566 420.2864 107.7695 419.8312 112.8548 412.6335 113.2862 411.8497 113.331 411.757 113.3734 411.6499 113.4781 411.3277 113.5569 411.0621 113.7137 410.5906 113.7927 410.325 114.084 409.4265 114.1637 409.1605 114.3209 408.6888 114.4008 408.4226 114.6925 407.5237 114.7722 407.2575 114.928 406.7861 115.0074 406.52 115.2954 405.6226 115.4005 405.2664 115.4483 405.1491 115.7083 404.3913 116.4067 402.43 116.4695 402.2362 116.7036 401.5809 116.83 401.2051 117.5328 399.2427 117.6125 398.9863 117.8585 398.2541 117.918 398.0586 118.0336 397.7294 118.0932 397.5337 118.3412 396.8004 118.4012 396.6045 118.6573 395.8524 118.8582 395.2408 119.0907 393.501 119.1267 393.1845 119.2556 392.1173 119.2764 391.8993 119.2974 391.3785 119.3137 391.2033 119.3209 391.0516 119.3506 389.2107 119.3503 388.9818 119.3376 388.7611 119.3417 388.3155 119.3375 388.1672 119.3207 388.0287 119.2196 387.3957 119.1736 387.0574 119.0754 386.4453 119.0595 386.3186 118.997 385.9568 118.9483 385.6187 118.8082 384.7729 118.6317 383.6601 118.537 383.242 118.3177 382.2023 118.2513 381.912 118.0327 380.8728 117.9067 380.3069 117.6624 379.157 116.8546 375.1599 116.5131 372.4726 116.491 372.292 116.485 372.1955 116.4882 372.0268 116.5538 371.4182 116.641 370.5236 116.6679 370.3119 116.6963 369.9537 116.7512 369.5506 116.853 368.632 116.883 368.4186 117.0798 366.7246 117.1115 366.5064 117.1731 365.9541 117.2052 365.736 117.3156 364.8192 117.414 364.05 117.4475 363.8322 117.5648 362.9171 117.67 362.1498 117.7057 361.9326 118.1227 359.2015 118.1311 359.0235 118.1259 358.7911 118.1571 358.2326 118.1551 357.9735 118.1972 357.344 118.197 357.2675 118.1828 357.1157 118.1619 357.055 118.1169 356.9692 117.8265 356.4693 117.6891 356.237 117.5778 356.013 117.3962 355.9727 116.594 355.8579 116.1599 355.7832 115.954 355.7574 115.7961 355.7301 115.5747 355.7091 115.4 355.6806 115.2193 355.6609 114.8238 355.601 114.1823 355.5135 114.0422 355.4908 113.9295 355.4637 113.8983 355.444 113.8752 355.411 113.8401 355.3042 113.7468 354.8471 113.7401 354.769 113.7435 354.7039 113.7647 354.603 113.809 354.4665 113.9016 354.2068 114.1742 353.3909 114.2877 353.0726 114.3459 352.8827 114.4588 352.5644 114.5169 352.3745 114.63 352.0565 115.07 350.7334 115.1824 350.4154 115.24 350.2257 115.3518 349.9075 115.4092 349.7178 115.5212 349.3998 115.957 348.077 116.0684 347.759 116.1255 347.5693 116.2364 347.2511 116.2934 347.0613 116.4046 346.7433 117.0043 344.9114 117.1147 344.593 117.1712 344.403 117.2814 344.0846 117.8748 342.2497 117.984 341.9307 118.0397 341.7402 118.1487 341.421 118.7336 339.5803 118.8411 339.26 118.896 339.0689 119.0081 338.7307 119.0777 338.4795 119.1686 338.1149 119.3511 337.2652 120.1745 333.4406 120.3439 332.6123 120.4967 331.8993 120.6627 331.077 120.7916 330.4846 120.8566 330.117 120.9846 329.4605 121.0067 329.3119 121.0085 329.2318 120.9929 329.1334 120.9376 328.9649 120.7153 328.3776 120.5842 328.0094 120.1241 326.8502 119.7735 325.9237 119.607 325.5314 119.5143 325.2855 119.4217 325.0639 119.189 324.4543 119.1297 324.3365 119.0533 324.2455 118.964 324.1653 118.8041 324.0045 118.6924 323.9046 118.5338 323.7427 118.1913 323.424 118.0331 323.2619 117.9022 323.1416 117.7643 322.9986 117.5512 322.805 117.4769 322.7516 117.2806 322.626 116.8694 322.3795 116.7449 322.2969 109.299 318.8555 108.655 318.4853 108.445 318.356 107.8912 318.0356 107.3601 317.7155 106.8069 317.3904 106.336 317.1011 104.2845 315.7355 99.5139 312.5488 98.5824 311.9788 98.2622 311.7748 96.2931 310.5662 95.9746 310.3627 94.0413 309.1724 93.3299 308.7214 93.1901 308.6432 91.2008 307.3475 90.6207 306.9627 88.9694 305.8925 87.9355 305.21 87.7775 305.1119 86.9426 304.5603 86.6263 304.3591 86.4644 304.2449 86.2868 304.1317 85.7418 303.764 85.6034 303.6793 85.3932 303.5362 85.2349 303.4384 84.6735 303.0629 84.3352 302.8421 84.2349 302.7892 84.3266 302.5401 84.2416 302.771 82.3086 301.3038 80.6159 300.6602 80.3173 300.5633 79.4331 300.2625 78.7875 300.0549 77.7883 299.7182 77.1426 299.5127 76.2008 299.1976 75.4975 298.9749 74.4979 298.6435 74.1173 298.5296 74.0714 298.5118 74.032 298.4887 73.9952 298.4501 73.9849 298.3984 73.9954 298.3369 74.1186 297.9976 74.1751 297.8178 74.5733 296.667 74.6296 296.4874 74.9602 295.5266 75.0703 295.2263 75.1673 294.9357 75.3187 294.5247 75.375 294.345 75.5266 293.934 75.6238 293.6435 75.9423 292.7531 76.0399 292.4622 76.1924 292.0517 76.4985 291.1714 76.7227 290.5585 76.8463 290.085 77.1942 288.8302 77.2421 288.6375 77.3364 288.3137 77.3842 288.121 77.7265 286.8828 77.7743 286.69 77.8684 286.3659 77.9161 286.173 78.1211 285.4337 78.2185 285.0398 78.4033 284.352 78.8557 282.5336 79.0096 281.9472 79.453 280.1573 79.6066 279.5705 79.9787 278.0629 80.0961 277.6229 80.1192 277.5136 80.4308 276.2505 80.5679 275.6997 80.6505 275.3861 80.7837 274.7739 80.8051 274.7032 80.8327 274.6502 80.8761 274.6098 80.4207 274.6139 80.2132 274.5919 80.0249 274.5311 79.2903 274.5947 79.2334 273.0571 79.2334 272.089 79.1764 271.1778 79.2903 269.9249 79.3473 268.729 79.2903 267.7608 79.2903 267.1344 79.1195 266.7358 79.0625 265.8246 79.0316 264.7118 78.6639 263.8883 78.3222 263.4327 78.0944 262.6354 77.9805 261.6673 78.1513 259.9588 78.3772 258.7596 78.3791 257.567 77.7899 257.0317 77.4756 256.4079 77.1221 255.2479 77.2402 254.5487 77.3541 253.8653 77.1832 252.8972 76.6299 251.7677 76.5568 251.0179 76.4998 250.1636 76.329 249.4802 75.851 248.8558 75.2491 249.0278 74.6895 248.9547 73.2436 248.5593 72.2584 248.2992 70.7971 247.8265 66.9505 246.6486 64.8225 245.9626 63.05 245.4268 62.6165 245.2731 62.0921 245.1127 61.6568 244.9574 60.5929 244.6357 59.9722 244.3999 59.4429 244.2431 57.7958 243.7018 57.2636 243.547 56.0075 243.1436 55.7568 243.0473 55.5307 242.9811 54.8741 242.7566 54.2711 242.504 53.5677 242.2717 51.9259 241.7955 51.4233 241.6369 50.9996 241.5248 49.2805 240.9999 48.8949 240.8876 48.7959 240.8631 46.337 239.9362 44.4292 239.3667 19.8463 231.6991 12.5729 229.4304 1 226.1239 4.2056 215.4175 7.4988 204.4188 7.6124 204.0324 11.4763 190.8893 11.4994 190.8126 11.5316 190.7055 14.3093 181.4754 15.9012 176.0293 16.5271 176.5957 17.1838 177.1898 17.6528 177.5338 18.2469 177.7214 18.9348 177.6901 19.7477 177.5963 20.592 177.4087 21.3111 177.4087 22.0303 177.4087 22.8433 177.4087 23.5624 177.5025 24.5317 177.9212 25.032 178.2529 25.6261 178.3155 26.2827 178.3155 26.7954 178.1971 27.0957 178.1278 27.6272 178.1278 28.1901 178.1904 28.8154 178.5343 29.0656 179.0659 29.3782 179.6912 30.0036 179.785 30.5977 179.5974 31.0667 179.316 31.7546 179.191 32.3487 179.191 33.1304 179.2848 34.1309 179.5662 34.7876 179.785 35.3504 179.9414 35.9445 180.0977 36.6185 180.2585 37.6642 180.5042 38.3834 180.6293 38.7458 180.6561 39.2276 180.6918 41.1349 181.2859 41.8228 181.3797 42.6983 181.4735 43.7302 181.6611 44.4181 181.7236 45.0122 181.9425 45.9502 182.2865 46.3254 182.4741 46.7006 182.5366 46.982 182.5366 47.2322 182.6304 47.3572 182.818 47.7325 182.9118 48.3578 182.8493 48.8894 182.818 49.6085 182.8493 50.3277 183.0682 50.8905 182.9118 51.4221 182.9118 52.0161 183.2245 53.0167 183.6623 53.8297 183.8811 55.0179 184.2563 55.7058 184.3189 56.3624 184.6003 56.9565 184.6628 57.8632 184.7566 58.6137 184.7566 59.3328 184.8817 59.7706 185.1006 60.5027 185.4562 60.8649 185.6321 61.3652 186.0073 61.9718 186.1195 62.8348 186.4451 64.2381 186.5739 64.3376 186.5604 64.8393 186.5366 65.0328 186.5 65.155 186.4531 65.2647 186.3802 65.3633 186.2951 65.5245 186.1231 65.6697 185.9107 65.9087 185.4842 66.0789 185.3713 66.3281 185.1986 66.6035 185.0183 66.7915 184.9146 66.9704 184.8388 67.0995 184.798 67.7863 184.6597 68.2165 184.5907 68.6231 184.5015 69.5358 184.3244 70.3713 184.1457 70.796 183.9982 71.1091 183.8519 71.5589 183.6266 71.8817 183.4969 72.0694 183.4572 72.3913 183.4219 72.5942 183.3819 72.9995 183.2694 74.1262 182.9015 74.5968 182.7572 74.7394 182.7226 74.9879 182.6754 75.2582 182.6493 75.537 182.6431 76.5697 182.6507 76.8374 182.6324 77.0029 182.6002 77.0927 182.5704 77.2069 182.5193 77.4942 182.3329 77.6041 182.2768 77.7529 182.2174 77.9836 182.1505 78.6671 182.0219 78.8049 181.9841 79.1391 181.8682 79.7521 181.606 79.9419 181.5392 80.0245 181.4699 80.076 181.4432 80.133 181.4223 80.2556 181.3905 80.3441 181.3286 80.4672 181.2822 80.6882 181.2487 80.93 181.24 81.1796 181.2459 81.4291 181.2666 82.1813 181.3834 82.2446 181.39 82.7212 181.2234 83.0338 181.0045 83.1276 180.7231 83.3778 180.4417 83.5967 180.1915 83.9774 180.105 84.2846 180.0352 84.9725 180.0352 85.848 179.8476 86.7547 179.66 87.4739 179.2535 88.2556 178.8157 88.8184 178.4093 89.5688 178.0028 89.819 177.7839 90.3193 177.7526 90.9133 177.7526 91.5074 177.7214 92.0703 177.8464 92.8207 177.8777 93.4773 177.909 94.0714 177.9715 94.7593 178.0028 95.3221 178.0028 96.0413 177.8152 96.7292 177.3774 97.0106 177.3462 97.4483 177.2836 98.0737 177.3774 98.6365 177.4712 99.2931 177.8152 100.1686 178.0653 100.8252 178.2216 101.4193 178.4093 102.1385 178.5969 102.6701 178.9408 103.2016 179.3786 103.4517 179.9101 103.8582 180.4729 104.5461 181.536 105.1308 181.9849 105.8281 182.1927 106.3284 182.2239 106.985 181.88 107.4228 181.536 107.923 181.2546 108.3921 181.2546 108.8298 181.4422 109.2988 181.6611 109.7053 181.8175 110.1118 182.3177 110.5495 182.7555 110.7997 183.162 111.3 183.631 112.8978 184.613 114.3017 185.4758 116.4592 186.6014 117.7099 187.2268 119.1169 187.6554 119.2558 187.6977 121.5871 188.1336 122.3375 188.3212 122.8378 188.5713 123.3381 188.7902 123.9009 188.9778 124.3699 189.2279 124.9953 189.2279 125.4956 189.2592 126.0897 189.1029 126.3261 189.0241 127.1215 188.7589 127.7469 188.7902 127.997 189.1029 127.0125 190.3886 126.946 190.5377 126.8363 190.7838 125.9535 192.5782 125.7017 193.1437 125.5208 193.4833 125.3864 193.783 125.1727 194.1876 125.1667 194.2027 125.3802 193.7983 125.5146 193.4987 125.6955 193.159 125.9473 192.5936 126.8301 190.7992 126.9398 190.553 126.9958 190.54 127.0462 190.5675 127.1002 190.6082 127.413 190.8642 127.5153 190.9359 127.9104 191.2176 128.0667 191.3343 128.3909 191.5516 128.4985 191.617 128.6833 191.742 128.8981 191.8734 129.0144 191.9504 129.112 192.0075 129.799 192.4173 130.0041 192.5398 130.3874 192.7491 130.5817 192.863 130.8572 193.0083 131.0413 193.1126 131.4056 193.3029 131.5164 193.365 131.8668 193.5422 132.0105 193.6251 132.3632 193.7993 132.7609 194.0038 132.8457 194.0434 132.9701 194.1113 133.3184 194.2768 133.5197 194.3824 133.9342 194.5758 134.136 194.6807 134.6218 194.9195 134.8892 195.0457 134.8924 195.0475 135.0678 194.9972 135.071 194.9889 135.0853 194.9477 135.0969 194.9135 135.1232 194.8669 135.1482 194.8348 135.2727 194.6993 135.485 194.4627 135.6563 194.2471 135.712 194.1879 135.7415 194.1686 136.0644 193.4893 137.1389 194.1666 137.2868 194.253 137.3551 194.2979 137.5659 194.4197 137.7994 194.5664 137.9074 194.6278 138.3803 194.9176 138.7829 195.157 139.1505 195.3895 139.4095 195.5414 139.6667 195.7017 139.8333 195.8126 139.9542 195.8812 140.0385 195.9395 140.0906 195.9912 140.1119 196.0247 140.5982 196.5222 140.8372 196.7953 141.036 197.0225 141.5363 197.1789 142.2241 197.3039 142.9753 197.3336 143.1057 197.3909 143.695 197.6498 144.5032 198.0032 145.1946 198.1169 145.9138 197.9918 146.3202 197.9918 146.8518 197.9918 147.3235 198.0644 147.8524 198.4608 148.0047 198.8943 148.0003 198.9021 148.0904 198.9601 148.2199 199.0736 148.271 199.097 148.3325 199.1086 149.48 199.1452 149.5818 199.1374 149.6301 199.115 149.6818 199.0614 150.1597 199.0614 150.4411 198.8738 150.9414 198.5298 151.1603 197.9983 151.5042 197.1228 151.598 196.685 151.7231 196.2473 151.9732 196.0636 152.206 196.0673 152.5146 196.0877 153.1909 196.0956 153.4943 196.1196 153.6511 196.1396 153.9756 196.2174 154.2656 196.2746 155.6809 196.58 156.8026 196.8887 157.0458 196.9642 157.137 196.9825 157.1936 196.9724 157.8829 196.9039 158.1017 196.5912 158.2019 195.886 158.4144 194.809 158.6958 194.4025 159.4686 194.3221 159.6297 194.2421 159.6942 194.1898 161.0483 189.2463 176.5545 193.3582 181.7153 194.7267 181.879 194.7701 182.419 194.9133 182.9652 194.9133 183.5114 194.7085 183.7076 194.671 184.0228 194.1523 184.4605 194.0273 184.867 194.1523 185.0718 194.2206 185.4298 194.3399 185.8123 194.4263 186.3991 194.5588 187.3659 194.8747 187.9581 194.8974 189.0256 194.934 189.5572 194.9966 190.0262 194.9966 190.544 195.1181 191.0581 195.278 191.402 195.278 192.869 195.176 194.5522 195.2549 194.6754 195.281 194.7026 195.3118 194.7126 195.3524 194.7188 195.3371 195.4661 195.5807 196.1489 196.6049 196.6951 197.1511 197.5144 197.5608 198.402 197.6291 199.5627 197.6291 200.7917 198.1753 200.86 198.9946 201.4745 199.9505 202.84 200.3601 203.7276 200.4967 204.1373 199.7456 204.2738 198.3801 205.0249 197.7656 206.3904 197.7656 207.4829 198.0387 208.0291 198.5849 208.6436 199.8822 209.1215 200.6332 210.0774 201.1795 211.1016 201.1112 211.9892 201.1112 212.3305 201.4526 212.8768 202.2719 213.6961 203.296 214.652 204.2519 216.0285 205.4128 216.7689 205.9253 217.1675 206.324 217.3953 206.8935 217.5661 207.5769 217.2814 208.6019 217.1675 209.3423 217.3383 210.0257 217.4522 210.8799 218.0217 211.7911 218.7051 212.0758 219.5024 212.4175 220.2997 212.987 221.097 213.5565 221.7234 214.126 222.6346 215.0372 223.6597 215.7206 224.6278 216.2331 225.2542 217.2012 226.1654 218.0555 226.7349 219.1375 227.5322 219.9917 227.76 220.789 228.1017 221.1877 228.3994 221.5747 228.6712 221.928 229.4115 222.3266 231.0061 222.9531 233.4549 223.5226 234.8217 223.9212 235.9607 224.6046 236.4732 225.1171 236.6667 225.7752 236.7579 226.0853 236.8149 226.8826 236.4732 227.9076 235.9037 228.7049 235.5051 229.2175 235.1634 230.5273 234.9356 231.4954 235.3342 232.5775 236.0746 232.9192 236.8718 233.147 237.9539 232.8053 238.9789 231.8941 239.5484 231.4385 240.004 231.3246 240.9152 231.7802 241.2569 232.6914 241.5055 233.0559 242.1111 233.9442 242.9654 234.6276 244.0152 234.8444 246.3501 234.9583 247.8877 234.9013 248.5142 234.7874 249.4253 233.8193 250.4504 232.9081 252.2728 231.1427 254.2091 229.662 255.6897 228.6939 256.2592 228.523 257.3412 228.4661 258.5941 228.3522 260.0679 228.0917 260.6196 228.2493 262.0744 228.9131 256.4738 235.8558 256.4648 235.867 249.4631 249.2399 249.2288 249.6874 243.4543 259.775 241.3642 263.6939 241.2303 263.9451 239.2145 267.2317 238.6727 268.1151 237.291 270.6604 236.5908 270.4633 237.291 270.6604 236.456 272.1985 234.0579 276.7887 232.3853 279.8203 231.3891 281.6259 230.2332 283.3148 229.7551 284.0133 228.4965 286.0511 228.2148 286.5754 226.2049 290.3179 224.6676 293.1804 224.0827 294.2695 223.9516 294.579 223.2222 296.2999 221.3972 298.2484 220.3537 298.8334 216.1794 302.0058 216.2073 302.0894 215.7444 302.4344 213.5595 304.0048 211.3888 305.3429 208.5753 307.0773 203.1619 309.5774 203.604 309.4459 204.0248 309.3325 205.0105 309.1046 206.4908 308.7289 207.8539 308.4098 208.5813 308.2266 209.0137 308.1301 209.4276 308.0215 210.3448 307.7955 211.3826 307.5106 211.8163 307.4128 212.5469 307.2224 212.9789 307.1187 213.9914 306.8404 214.403 306.7192 215.705 306.3612 216.3546 306.1542 216.5269 306.1069 216.973 305.9834 217.4507 305.854 217.4595 305.846 230.205 303.0076 237.2622 300.8517 241.3397 300.1257 253.673 297.9299 255.9644 297.5275 256.1193 297.5131 256.1417 297.511 269.1869 295.8711 271.4907 295.6056 271.6992 295.5815 279.9122 293.9131 281.5891 293.5688 286.4673 292.5674 292.1128 291.2935 309.0285 288.247 309.0625 288.242 308.5964 290.699 306.225 299.2156 305.5433 301.5417 304.8548 303.8914 304.7947 304.0963 303.5942 308.1931 303.1027 309.8704 303.0332 310.1075 302.1574 313.0962 302.07 313.3942 312.777 315.9508 319.6377 317.589 319.0496 321.2767 319.1095 320.9008 322.8654 322.497 327.4005 324.1009 327.5352 324.1485 334.3189 325.4444 334.2869 325.6898 334.2956 325.8317 334.0797 329.3253 339.3129 330.2569 341.2524 330.6022 341.5388 330.6305 352.7998 333.1958 353.3862 333.3294 362.5089 335.3124 362.9902 335.417 361.7765 342.6943 364.9656 343.7242 365.3427 344.4465 365.2608 346.6331 366.4842 346.6331 368.1526 346.6331 371.3904 346.648 372.0843 346.5669 374.0622 346.6674 377.7792 346.8563 379.3162 347.4611 381.7656 349.0869 381.2562 352.6855 378.3961 362.28 386.1317 363.8936 385.3841 365.7633 384.5936 369.2993 383.9086 373.9902 383.8089 374.4953 383.7058 374.8808 383.4035 376.0108 383.0452 378.0354 382.5768 380.6819 382.4967 381.1348 381.5495 385.4362 381.2572 386.7639 381.1388 387.3848 380.7161 389.6009 380.6791 389.795 379.3763 396.6233 379.4985 396.6562 379.7134 396.6989 379.8147 396.7357 379.8629 396.7667 379.9043 396.805 379.9379 396.85 379.9577 396.9064 379.9642 396.9456 379.9647 397.0388 379.9585 397.0946 379.9334 397.2072 379.859 397.4143 379.7908 397.6339 379.7276 397.7789 379.6911 397.8826 379.6259 398.1093 379.551 398.3287 379.4713 398.6275 379.4111 398.7896 379.2569 399.2442 379.1958 399.4845 379.1047 399.7663 379.0256 400.0655 378.8297 400.622 378.7307 400.9786 378.5327 401.5361 378.4095 401.9625 378.2992 402.4026 378.2446 402.5624 378.0483 403.2381 377.9567 403.5088 377.7784 404.1278 377.7075 404.3432 377.6185 404.6906 377.4386 405.2333 377.3483 405.5804 377.2175 405.9623 377.1566 406.1008 376.991 406.8121 376.8364 407.3241 376.6628 408.0156 376.507 408.5269 376.4012 408.9243 376.2149 409.5517 376.0846 410.0743 375.9268 410.6208 375.7931 411.1176 375.7019 411.525 375.2379 413.0451 375.1306 413.4431 374.946 414.0631 374.7076 414.9031 374.5231 415.5536 374.1953 416.5794 374.1173 416.8974 374.0498 417.1158 373.9875 417.3467 373.7188 418.1992 373.5967 418.6232 373.4644 419.0077 373.3439 419.2832 373.2154 419.7739 373.0424 420.3232 372.9598 420.673 372.6627 421.6056 372.5981 421.8354 372.4919 422.1509 372.4454 422.2493 372.3527 422.3724 372.3109 422.4077 372.2555 422.4382 372.1338 422.4696 372.0061 422.475 371.8772 422.4585 371.5455 422.3743 371.0832 422.307 370.6776 422.2124 370.3403 422.1638 369.8129 422.0603 369.4742 422.0152 368.9463 421.9125 368.6088 421.8671 368.0934 421.762 366.1368 421.426 365.7048 421.3487 365.175 421.242 364.8377 421.1934 364.3099 421.0907 363.9726 421.0421 363.4449 420.9388 363.1081 420.8889 362.2722 420.7107 361.5526 420.6038 360.9082 420.4769 360.5216 420.427 360.1519 420.3676 359.8304 420.3293 359.5236 420.2805 359.0825 420.2341 358.7671 420.1775 358.4467 420.1378 357.8245 420.0467 357.4934 419.9883 357.3384 419.9584 357.0844 419.9117 356.4557 419.8111 356.1176 419.7393 355.7848 419.6774 355.523 419.6159 354.9473 419.5102 354.5981 419.4294 354.1173 419.2848 353.786 419.2516 353.4741 419.1962 352.7074 419.0306 351.9011 418.8794 350.6074 418.6025 350.2012 418.5484 350.0282 418.5375 349.5728 418.4128 349.2972 418.3511 348.594 418.2421 348.2287 418.1934 347.4917 418.0689 347.473 418.0662 347.2002 418.0265 346.3394 417.8528 342.9969 417.0842 342.8582 417.0523 342.4829 416.9715 342.2286 416.9528 341.9411 416.9219 341.5228 416.8916 340.9696 416.8135 340.3512 416.7734 339.7979 416.6965 339.1784 416.6563 338.5534 416.5705 338.1332 416.5393 337.9152 416.5121 337.519 416.475 337.4339 416.4719 337.3854 416.4702 337.2564 416.4741 336.9561 416.4264 336.5955 416.3524 336.0987 416.2876 335.7446 416.2184 334.7055 416.0582 334.2791 415.9772 333.9204 415.9352 333.483 415.8555 333.1233 415.8138 332.6846 415.7338 332.3239 415.6919 331.8839 415.6121 331.4507 415.5585 331.0898 415.4871 330.7727 415.4362 330.63 415.4038 330.4092 415.3748 330.1074 415.3443 329.7285 415.2783 329.3895 415.2461 329.0147 415.1819 328.6748 415.1493 328.3004 415.0805 328.0215 415.0413 327.7575 414.9899 327.3606 414.9483 326.9837 414.8817 326.6441 414.843 326.3747 414.7854 325.931 414.7418 325.6614 414.6833 325.3215 414.6423 324.9425 414.5758 324.8268 414.5669 324.6499 414.5638 324.2485 414.5786 324.1949 414.7686 324.1368 415.0999 324.0771 415.2883 324.0179 415.597 323.9579 415.7817 323.899 416.0896 323.8398 416.2767 323.7843 416.604 323.7158 416.8712 323.6745 417.0998 323.6195 417.312 323.5644 417.5876 323.5481 417.6408 323.5065 417.7339 323.4553 417.8185 323.4218 417.8579 323.3615 417.9022 323.3127 417.9215 323.2985 417.9241 323.2625 417.9307 323.1467 417.9253 323.0525 417.9063 322.8828 417.836 322.5975 417.7311 322.3884 417.6674 322.099 417.5663 321.9229 417.4909 321.4963 417.3428 321.3673 417.2885 321.134 417.2228 320.9589 417.1529 320.6682 417.0534 320.4572 416.9911 320.1656 416.8883 319.9954 416.8144 319.9873 416.8109 319.695 416.7068 319.4832 416.6426 319.1903 416.5379 319.0113 416.4595 318.7181 416.3544 318.5058 416.2897 318.2122 416.1843 318.0328 416.1054 317.7393 415.9991 317.5271 415.9337 317.3821 415.8785 317.2312 415.8291 317.0469 415.756 316.729 415.6827 316.6935 415.9073 316.6494 416.093 316.6173 416.191 316.5042 416.4513 316.4608 416.5305 316.3866 416.7012 316.3431 416.7801 316.2886 416.9094 316.2265 417.0317 316.1545 417.2079 316.1127 417.2927 315.9256 417.8336 315.8843 417.9187 315.8135 418.0954 315.7714 418.1759 315.7189 418.3068 315.6584 418.4301 315.5886 418.6075 315.5479 418.6931 315.3681 419.2394 315.3281 419.3254 315.2601 419.5042 315.2193 419.5856 315.1511 419.7608 315.1104 419.8421 315.0427 420.0209 315.0025 420.107 314.9368 420.3087 314.7841 420.7151 314.7188 420.9168 314.6789 421.0031 314.6296 421.1387 314.5712 421.2641 314.5018 421.4402 314.4589 421.522 314.3778 421.7 314.3229 421.7807 314.2434 421.9536 314.229 421.985 314.1533 422.1999 314.0215 422.5249 313.8995 422.7702 313.8551 422.8455 313.6098 423.3254 313.5322 423.5102 313.3586 423.8831 313.2813 424.0681 312.8716 424.871 312.7946 425.0563 312.6219 425.4298 312.545 425.615 312.2391 426.2261 312.183 426.3682 312.0158 426.7445 311.943 426.9315 311.8172 427.1719 311.7181 427.2689 311.6478 427.3183 311.5617 427.3515 311.508 427.3612 311.3984 427.363 311.2682 427.3436 311.158 427.3212 310.9511 427.2599 310.8369 427.2338 310.4815 427.1739 310.2082 427.1094 309.8712 427.0501 309.5609 426.9803 309.3352 426.9462 308.9044 426.8677 308.5685 426.8137 308.3128 426.7545 307.9808 426.6963 307.7256 426.6365 307.3934 426.5787 307.0829 426.5095 306.8576 426.4749 306.6169 426.4267 306.5087 426.4026 306.2741 426.3366 305.9191 426.2349 305.7282 426.1645 305.5135 426.1077 305.3367 426.0409 305.0329 425.9404 304.4164 425.7514 304.0166 425.5974 303.3985 425.4066 303.0626 425.2898 302.5656 425.1324 302.0714 424.9494 301.3803 424.7336 300.5064 424.434 300.0187 424.2789 299.6682 424.1439 299.1391 423.961 298.921 423.8709 298.4054 423.6803 298.1933 423.6123 297.8701 423.4734 297.4082 423.3139 297.2781 423.2509 297.0136 423.1575 296.7067 423.0716 Z"/>
<path d="M 471.4604 556.6653 469.2984 556.3998 467.8587 556.2728 468.2334 554.3826 467.8587 556.2728 467.3621 556.2289 464.6165 555.5037 464.3438 555.4317 461.895 554.5205 459.674 553.6662 457.49 552.9018 457.396 552.869 457.0959 552.7689 453.8082 551.673 452.5299 551.4521 449.1954 550.8757 447.4913 550.433 447.3857 550.4056 446.4571 550.1878 443.0525 549.3891 442.5889 549.2804 441.6212 549.0534 439.4002 548.7686 436.7665 547.8221 435.7554 547.4588 432.908 546.8324 430.1942 545.9533 430.1437 545.9563 430.5951 544.4016 433.3736 536.369 435.2612 531.3579 436.4587 528.1789 436.5627 527.9026 436.6094 527.7943 439.739 520.5347 440.7032 518.2978 441.8003 515.4706 444.3567 508.8832 444.6517 508.1229 444.715 507.8998 445.4135 505.4373 445.7242 504.288 445.9854 503.7559 446.0703 503.5829 446.7603 501.5977 447.7268 499.1132 448.0841 498.1946 448.4461 497.2641 450.8622 491.4329 452.1639 488.0721 453.517 483.9091 453.1221 483.7726 445.5892 481.5806 441.2902 480.3297 440.494 480.098 436.5683 478.9557 433.5376 478.0738 433.3042 478.0059 424.7874 475.5276 418.5744 473.7197 414.4439 472.5178 411.4952 471.6597 411.7397 471.1352 413.0364 467.0978 413.9279 464.4728 414.376 463.1538 414.4626 462.8988 415.5095 459.7536 416.65 456.327 417.3362 454.2655 418.7737 449.9467 419.0861 449.0081 419.355 448.2003 420.0668 446.0613 420.8807 443.616 421.0585 443.0913 421.8061 440.8862 421.9295 440.5224 422.5013 438.8356 423.4466 435.9785 423.4738 435.8964 423.7494 435.076 424.542 432.717 425.5732 429.6475 425.9696 428.4675 426.2676 427.5711 426.3672 427.2715 426.9593 425.4899 427.0991 425.0693 427.6552 423.3964 428.2848 421.5011 428.3459 421.3174 429.5664 417.6437 429.5868 417.5823 430.0807 416.0957 430.7993 413.9327 432.4199 409.2815 432.5173 408.9189 434.0313 403.2804 434.0946 403.1739 435.2298 401.2656 436.3473 398.1087 437.7994 394.0064 438.3447 393.2129 439.1947 391.9761 439.8635 389.7477 440.5156 387.5752 442.2968 382.0734 444.7208 382.7921 447.1776 383.5035 449.6524 384.2209 452.0476 384.8754 454.5603 377.7142 454.6389 377.4761 454.8709 376.774 455.1248 376.0231 455.5672 374.7525 457.4233 369.4203 457.4274 369.4085 457.901 367.4712 459.1525 362.3525 459.2452 362.1073 459.75 360.773 461.1548 356.1412 456.7498 354.7476 456.7549 354.7262 457.3206 351.7797 458.9422 344.8393 459.1766 343.836 459.1887 343.4545 459.2526 341.1004 459.2767 340.2121 456.923 336.2333 456.9012 336.2064 458.338 335.7894 461.0418 335.221 462.3411 334.9896 462.5433 334.9755 466.0403 334.8817 467.3717 335.0173 467.6501 335.0456 470.4746 335.583 470.5633 335.6249 472.2504 336.4221 472.4182 336.4034 474.9047 338.7577 475.711 339.2354 477.2458 340.145 481.3302 341.8766 486.1096 344.2417 489.4556 346.5794 489.8875 347.6094 489.8875 348.6345 489.6597 351.1402 489.5458 353.4182 489.6028 355.2975 490.0786 356.6353 492.3129 360.4643 493.7091 362.857 492.9395 369.625 492.9573 369.8201 493.0082 370.3784 492.9765 375.4255 494.4443 378.6097 498.7466 380.4385 501.6101 381.0936 501.6958 381.1155 511.6557 383.9918 511.9584 383.9959 512.3262 384.0009 516.7097 383.2875 516.8062 383.2416 520.6787 381.7229 521.1634 381.5752 528.3213 379.6682 529.2211 379.3691 533.8529 378.9514 535.1982 379.797 536.2048 381.5518 537.1693 384.0932 537.8527 387.4722 538.0902 389.6827 538.1191 389.9519 538.0045 391.0789 536.0244 397.2708 535.6034 398.5874 535.5687 398.7216 535.4569 399.4769 535.3894 400.2351 535.367 400.9918 535.3893 401.7419 535.4562 402.4808 535.5358 402.9149 535.5905 403.2129 535.8085 403.9401 536.0769 404.6458 536.396 405.3263 536.7649 405.9778 537.1815 406.5963 537.6435 407.1782 538.1472 407.7197 538.2596 407.8228 538.6887 408.2169 538.9066 408.396 545.213 412.2648 550.6521 413.6702 556.0384 414.9975 559.3481 416.0111 562.1129 416.8578 563.6364 417.2579 564.3487 417.4935 564.5262 417.5523 568.8072 418.9682 573.3288 420.23 577.5889 420.7318 581.6323 420.6749 586.4476 420.5855 586.6223 420.5831 588.5782 420.384 590.029 420.1917 590.598 420.4002 591.4963 420.6259 592.1316 420.7903 593.446 421.1185 593.8609 421.3722 595.0835 422.1555 595.8257 422.6426 596.325 423.2842 596.8686 423.882 597.2808 424.4383 597.6266 425.0603 598.0132 426.0275 598.2048 426.6499 598.3974 427.2756 599.1226 429.6858 599.269 430.1414 599.8034 432.2694 597.4115 433.4653 596.2725 433.807 595.703 434.5473 595.0766 435.3446 594.1085 440.3561 593.3112 441.7798 592.9125 443.9439 592.8556 446.108 592.7836 448.3397 592.7986 448.4998 592.8556 452.3154 592.457 457.9533 592.4 458.4089 591.8305 459.8896 590.9763 461.1994 590.0651 462.5093 588.4356 463.516 585.9298 464.5981 584.4492 465.2814 582.6837 466.2496 581.26 467.2177 580.121 468.015 578.8112 469.2109 577.8431 470.6916 577.3305 472.9126 577.2736 475.3045 577.7861 479.6326 578.5318 483.8405 578.5834 484.1316 578.7416 485.1313 579.2772 487.8823 579.3532 490.5978 579.2041 491.4067 578.3008 498.8022 577.5281 503.7524 576.9799 507.1738 576.8255 508.1264 576.6095 510.0143 575.3378 516.6776 574.0859 523.7494 573.3798 527.7216 573.0299 528.4363 572.2172 530.6665 571.2392 533.3566 565.8891 537.1643 555.8442 537.9668 549.1984 537.4368 543.2744 539.9781 542.3205 540.6192 540.7892 541.6432 533.7397 550.3798 528.0712 557.4267 527.0153 558.7644 524.9449 561.2346 521.351 565.6206 518.5587 567.7231 514.9087 570.9508 514.7408 571.0364 510.3782 573.4741 507.5354 573.1072 505.9605 572.7061 502.7803 570.5188 495.1917 565.3366 490.787 562.4852 486.3406 559.3748 483.6495 557.9374 480.916 557.311 476.4739 556.8554 472.5445 556.7984 471.6249 556.6855 471.4604 556.6653 Z"/>
<path d="M 289.9176 420.6873 295.5557 422.7827 295.6989 422.8119 296.0139 422.8875 296.544 423.0283 296.7067 423.0716 297.0136 423.1575 297.2781 423.2509 297.4082 423.3139 297.8701 423.4734 298.1933 423.6123 298.4054 423.6803 298.921 423.8709 299.1391 423.961 299.6682 424.1439 300.0187 424.2789 300.5064 424.434 301.3803 424.7336 302.0714 424.9494 302.5656 425.1324 303.0626 425.2898 303.3985 425.4066 304.0166 425.5974 304.4164 425.7514 305.0329 425.9404 305.3367 426.0409 305.5135 426.1077 305.7282 426.1645 305.9191 426.2349 306.2741 426.3366 306.5087 426.4026 306.6169 426.4267 306.8576 426.4749 307.0829 426.5095 307.3934 426.5787 307.7256 426.6365 307.9808 426.6963 308.3128 426.7545 308.5685 426.8137 308.9044 426.8677 309.3352 426.9462 309.5609 426.9803 309.8712 427.0501 310.2082 427.1094 310.4815 427.1739 310.8369 427.2338 310.9511 427.2599 311.158 427.3212 311.2682 427.3436 311.3984 427.363 311.508 427.3612 311.5617 427.3515 311.6478 427.3183 311.7181 427.2689 311.8172 427.1719 311.943 426.9315 312.0158 426.7445 312.183 426.3682 312.2391 426.2261 312.545 425.615 312.6219 425.4298 312.7946 425.0563 312.8716 424.871 313.2813 424.0681 313.3586 423.8831 313.5322 423.5102 313.6098 423.3254 313.8551 422.8455 313.8995 422.7702 314.0215 422.5249 314.1533 422.1999 314.229 421.985 314.2434 421.9536 314.3229 421.7807 314.3778 421.7 314.4589 421.522 314.5018 421.4402 314.5712 421.2641 314.6296 421.1387 314.6789 421.0031 314.7188 420.9168 314.7841 420.7151 314.9368 420.3087 315.0025 420.107 315.0427 420.0209 315.1104 419.8421 315.1511 419.7608 315.2193 419.5856 315.2601 419.5042 315.3281 419.3254 315.3681 419.2394 315.5479 418.6931 315.5886 418.6075 315.6584 418.4301 315.7189 418.3068 315.7714 418.1759 315.8135 418.0954 315.8843 417.9187 315.9256 417.8336 316.1127 417.2927 316.1545 417.2079 316.2265 417.0317 316.2886 416.9094 316.3431 416.7801 316.3866 416.7012 316.4608 416.5305 316.5042 416.4513 316.6173 416.191 316.6494 416.093 316.6935 415.9073 316.729 415.6827 317.0469 415.756 317.2312 415.8291 317.3821 415.8785 317.5271 415.9337 317.7393 415.9991 318.0328 416.1054 318.2122 416.1843 318.5058 416.2897 318.7181 416.3544 319.0113 416.4595 319.1903 416.5379 319.4832 416.6426 319.695 416.7068 319.9873 416.8109 319.9954 416.8144 320.1656 416.8883 320.4572 416.9911 320.6682 417.0534 320.9589 417.1529 321.134 417.2228 321.3673 417.2885 321.4963 417.3428 321.9229 417.4909 322.099 417.5663 322.3884 417.6674 322.5975 417.7311 322.8828 417.836 323.0525 417.9063 323.1467 417.9253 323.2625 417.9307 323.2985 417.9241 323.3127 417.9215 323.3615 417.9022 323.4218 417.8579 323.4553 417.8185 323.5065 417.7339 323.5481 417.6408 323.5644 417.5876 323.6195 417.312 323.6745 417.0998 323.7158 416.8712 323.7843 416.604 323.8398 416.2767 323.899 416.0896 323.9579 415.7817 324.0179 415.597 324.0771 415.2883 324.1368 415.0999 324.1949 414.7686 324.2485 414.5786 324.6499 414.5638 324.8268 414.5669 324.9425 414.5758 325.3215 414.6423 325.6614 414.6833 325.931 414.7418 326.3747 414.7854 326.6441 414.843 326.9837 414.8817 327.3606 414.9483 327.7575 414.9899 328.0215 415.0413 328.3004 415.0805 328.6748 415.1493 329.0147 415.1819 329.3895 415.2461 329.7285 415.2783 330.1074 415.3443 330.4092 415.3748 330.63 415.4038 330.7727 415.4362 331.0898 415.4871 331.4507 415.5585 331.8839 415.6121 332.3239 415.6919 332.6846 415.7338 333.1233 415.8138 333.483 415.8555 333.9204 415.9352 334.2791 415.9772 334.7055 416.0582 335.7446 416.2184 336.0987 416.2876 336.5955 416.3524 336.9561 416.4264 337.2564 416.4741 337.3854 416.4702 337.4339 416.4719 337.519 416.475 337.9152 416.5121 338.1332 416.5393 338.5534 416.5705 339.1784 416.6563 339.7979 416.6965 340.3512 416.7734 340.9696 416.8135 341.5228 416.8916 341.9411 416.9219 342.2286 416.9528 342.4829 416.9715 342.8582 417.0523 342.9969 417.0842 346.3394 417.8528 347.2002 418.0265 347.473 418.0662 347.4917 418.0689 348.2287 418.1934 348.594 418.2421 349.2972 418.3511 349.5728 418.4128 350.0282 418.5375 350.2012 418.5484 350.6074 418.6025 351.9011 418.8794 352.7074 419.0306 353.4741 419.1962 353.786 419.2516 354.1173 419.2848 354.5981 419.4294 354.9473 419.5102 355.523 419.6159 355.7848 419.6774 356.1176 419.7393 356.4557 419.8111 357.0844 419.9117 357.3384 419.9584 357.4934 419.9883 357.8245 420.0467 358.4467 420.1378 358.7671 420.1775 359.0825 420.2341 359.5236 420.2805 359.8304 420.3293 360.1519 420.3676 360.5216 420.427 360.9082 420.4769 361.5526 420.6038 362.2722 420.7107 363.1081 420.8889 363.4449 420.9388 363.9726 421.0421 364.3099 421.0907 364.8377 421.1934 365.175 421.242 365.7048 421.3487 366.1368 421.426 368.0934 421.762 368.6088 421.8671 368.9463 421.9125 369.4742 422.0152 369.8129 422.0603 370.3403 422.1638 370.6776 422.2124 371.0832 422.307 371.5455 422.3743 371.8772 422.4585 372.0061 422.475 372.1338 422.4696 372.1541 422.4782 372.7499 422.662 372.1541 422.4782 372.1338 422.4696 372.2555 422.4382 372.3109 422.4077 372.3527 422.3724 372.4454 422.2493 372.4919 422.1509 372.5981 421.8354 372.6627 421.6056 372.9598 420.673 373.0424 420.3232 373.2154 419.7739 373.3439 419.2832 373.4644 419.0077 373.5967 418.6232 373.7188 418.1992 373.9875 417.3467 374.0498 417.1158 374.1173 416.8974 374.1953 416.5794 374.5231 415.5536 374.7076 414.9031 374.946 414.0631 375.1306 413.4431 375.2379 413.0451 375.7019 411.525 375.7931 411.1176 375.9268 410.6208 376.0846 410.0743 376.2149 409.5517 376.4012 408.9243 376.507 408.5269 376.6628 408.0156 376.8364 407.3241 376.991 406.8121 377.1566 406.1008 377.2175 405.9623 377.3483 405.5804 377.4386 405.2333 377.6185 404.6906 377.7075 404.3432 377.7784 404.1278 377.9567 403.5088 378.0483 403.2381 378.2446 402.5624 378.2992 402.4026 378.4095 401.9625 378.5327 401.5361 378.7307 400.9786 378.8297 400.622 379.0256 400.0655 379.1047 399.7663 379.1958 399.4845 379.2569 399.2442 379.4111 398.7896 379.4713 398.6275 379.551 398.3287 379.6259 398.1093 379.6911 397.8826 379.7276 397.7789 379.7908 397.6339 379.859 397.4143 379.9334 397.2072 379.9585 397.0946 379.9647 397.0388 379.9642 396.9456 379.9577 396.9064 379.9379 396.85 379.9043 396.805 379.8629 396.7667 379.8147 396.7357 379.7134 396.6989 379.4985 396.6562 379.3763 396.6233 380.6791 389.795 380.7161 389.6009 381.1388 387.3848 381.2572 386.7639 382.4967 381.1348 383.0452 378.0354 383.4035 376.0108 383.7058 374.8808 383.8089 374.4953 383.9086 373.9902 384.5936 369.2993 385.3841 365.7633 386.1317 363.8936 390.5924 365.3806 398.107 367.9361 398.578 368.1001 406.396 370.8224 411.9011 372.6732 414.519 373.5089 422.3191 375.9988 429.067 378.3553 430.6329 378.893 432.096 379.3953 433.0503 379.6077 434.793 380.0496 437.8666 380.9132 440.6774 381.6262 442.2968 382.0734 440.5156 387.5752 439.8635 389.7477 439.1947 391.9761 438.3447 393.2129 437.7994 394.0064 436.3473 398.1087 435.2298 401.2656 434.0946 403.1739 434.0313 403.2804 432.5173 408.9189 432.4199 409.2815 430.7993 413.9327 430.0807 416.0957 429.5868 417.5823 429.5664 417.6437 428.3459 421.3174 428.2848 421.5011 427.6552 423.3964 427.0991 425.0693 426.9593 425.4899 426.3672 427.2715 426.2676 427.5711 425.9696 428.4675 425.5732 429.6475 424.542 432.717 423.7494 435.076 423.4738 435.8964 423.4466 435.9785 422.5013 438.8356 421.9295 440.5224 421.8061 440.8862 421.0585 443.0913 420.8807 443.616 420.0668 446.0613 419.355 448.2003 419.0861 449.0081 418.7737 449.9467 417.3362 454.2655 416.65 456.327 415.5095 459.7536 414.4626 462.8988 414.376 463.1538 413.9279 464.4728 413.0364 467.0978 411.7397 471.1352 411.4952 471.6597 414.4439 472.5178 418.5744 473.7197 424.7874 475.5276 433.3042 478.0059 433.5376 478.0738 436.5683 478.9557 440.494 480.098 441.2902 480.3297 445.5892 481.5806 453.1221 483.7726 453.517 483.9091 452.1639 488.0721 450.8622 491.4329 448.4461 497.2641 448.0841 498.1946 446.7603 501.5977 446.0703 503.5829 445.7242 504.288 445.4135 505.4373 444.6517 508.1229 444.4817 508.5609 444.3567 508.8832 441.8003 515.4706 441.3906 516.5265 440.7032 518.2978 439.739 520.5347 436.6094 527.7943 436.5627 527.9026 436.4587 528.1789 435.2612 531.3579 434.9904 532.0767 433.3736 536.369 430.5951 544.4016 430.1437 545.9563 430.1942 545.9533 432.908 546.8324 435.7554 547.4588 436.7665 547.8221 439.4002 548.7686 441.6212 549.0534 443.0525 549.3891 447.3857 550.4056 447.4913 550.433 449.1954 550.8757 452.5299 551.4521 453.8082 551.673 457.396 552.869 457.49 552.9018 459.674 553.6662 461.895 554.5205 464.3438 555.4317 464.6165 555.5037 467.3621 556.2289 467.8587 556.2728 469.2984 556.3998 471.4604 556.6653 471.4598 556.6783 471.4574 556.7329 471.3802 557.0887 471.2376 557.5891 470.8765 559.0034 470.7811 559.467 470.7188 559.8502 470.888 560.0586 471.0151 560.3571 471.0496 560.5023 471.0525 560.7408 470.9919 561.1336 470.8228 561.8592 470.714 562.4474 470.6781 562.707 470.5409 563.2634 470.4636 563.4905 470.3966 563.6064 470.312 563.7175 469.6538 564.4577 469.3318 564.786 469.2213 564.8758 469.0918 564.942 468.9724 564.9756 468.8341 564.9729 468.699 564.9461 468.4634 564.8853 467.9345 564.7036 467.5572 564.5998 467.0851 564.4391 466.5865 564.291 466.3441 564.2309 466.1836 564.179 465.4994 563.9063 465.3942 563.8774 465.2265 563.8513 465.1419 563.8508 465.048 563.864 464.862 563.9078 464.6029 563.9835 464.314 564.0841 463.2546 564.4884 462.7322 564.667 461.4184 565.1322 459.285 565.9199 458.9467 566.0815 458.6456 566.0767 458.3664 566.3845 458.0395 566.6366 457.5792 567.0041 457.2216 567.2017 457.0427 567.2774 456.9152 567.3118 456.7234 567.3395 456.5181 567.3489 456.3055 567.3444 456.0894 567.3266 455.8729 567.2922 455.6751 567.2399 455.1799 566.7255 454.4515 565.0894 454.3506 564.9138 454.2403 564.7985 454.129 564.7401 454.0027 564.7184 453.8722 564.7196 453.3938 564.7931 453.0585 564.858 452.4104 564.9691 451.839 565.0566 451.2659 565.1803 450.7816 565.2756 449.8766 565.4292 448.6528 565.6742 448.2021 565.7337 447.6438 565.8254 447.3078 565.9042 447.1814 565.9428 447.1231 565.9691 446.915 566.113 446.4549 566.535 446.2116 566.7379 446.0789 566.836 446.1867 567.5447 446.2081 567.8629 446.321 569.0425 446.328 569.2589 446.3076 569.5655 446.2336 570.4269 446.4151 571.376 446.4416 571.5204 446.4409 571.6536 446.4209 571.7142 446.3523 571.7913 446.2452 571.8316 446.1103 571.8438 445.9615 571.8378 445.8045 571.8171 444.8967 571.6468 443.9746 571.4954 443.7185 571.4157 443.6195 571.3669 443.5754 571.3352 443.4823 571.225 443.4285 571.1196 443.3028 570.7649 443.1292 570.3362 442.9588 569.8453 442.7187 569.319 442.6094 569.0497 442.3581 568.5391 442.2853 568.4364 442.1849 568.3426 442.1185 568.3079 442.0463 568.2837 441.8927 568.2586 441.6533 568.2623 441.4961 568.2923 441.421 568.3189 441.3556 568.3521 441.2744 568.4108 441.1669 568.5318 441.0915 568.6417 440.9767 568.841 440.7345 569.3263 440.4552 569.8127 440.2039 570.2961 439.9552 570.721 439.063 573.2281 438.427 574.6908 437.6002 575.2632 436.3919 575.136 435.3743 574.7544 434.2932 574.5 433.3392 574.0549 432.1945 573.4189 431.8945 573.0927 431.3364 572.4858 430.4079 572.2399 429.0625 571.9719 428.1879 572.0198 427.5431 572.5262 427.1068 573.1009 426.84 573.8986 426.5059 574.2556 426.2718 574.5057 425.8223 574.9263 425.7527 574.9914 425.3519 575.3664 424.8205 575.8835 423.5109 576.0638 422.0826 575.8356 420.8668 575.84 419.1541 575.0922 418.0103 574.6458 416.9228 574.134 415.6435 573.3664 414.9078 573.2065 414.6822 573.1892 414.2899 573.1591 413.2447 573.0466 412.1252 573.3025 410.59 573.3025 409.3088 573.2937 408.5309 572.9915 407.7259 572.714 407.2622 572.5293 406.909 572.3434 406.7088 572.1266 406.3753 571.6742 405.9953 571.0524 405.7497 570.6295 405.1663 569.5344 405.0708 569.3621 405.0001 569.1867 404.7494 568.3439 404.6193 567.8845 404.5181 567.3148 403.7774 567.2575 403.2337 567.0656 402.8179 567.0016 401.8584 566.8737 400.8989 566.8737 399.4916 566.8737 398.3177 566.6841 398.1982 566.5577 398.0427 566.5412 397.9354 566.5818 397.8985 566.596 397.8281 566.6116 397.7516 566.6177 397.6996 566.6176 397.6401 566.6138 397.5104 566.5966 397.3011 566.556 395.8682 566.6331 395.5593 566.6188 395.4068 566.5996 395.2567 566.5638 395.119 566.5092 394.895 566.3986 394.3623 566.0748 393.6045 565.549 393.516 565.4762 393.47 565.4285 393.3997 565.327 393.3576 565.2261 393.3062 565.0516 393.295 564.5865 393.3178 563.9754 393.5277 562.8618 393.3369 562.2259 392.9553 561.1447 392.3047 560.5047 391.7866 560.3316 391.3654 560.1908 390.1571 559.8092 388.6308 559.8092 387.486 559.1732 386.7229 558.4737 386.4049 557.5197 386.5321 556.5022 386.5321 554.8487 384.7776 554.4562 381.6987 553.7675 382.3252 551.9693 383.2832 549.2198 383.3533 548.9025 383.4715 548.4469 383.8157 547.2698 383.9071 546.8865 384.0833 546.2423 384.3154 545.5347 384.4044 545.1502 384.6044 544.3984 385.1468 542.4701 385.2539 541.9994 385.2758 541.7194 385.2719 541.4367 385.2002 540.6138 385.1703 539.9593 385.1073 539.4572 385.0793 538.8958 385.0369 538.4437 384.9537 537.792 385.067 537.4576 385.1317 537.2359 385.2102 536.9195 385.3285 536.363 385.4749 535.7282 385.6186 535.1579 385.6931 534.9034 385.8165 534.3798 385.8942 534.0097 385.9408 533.7297 386.2691 532.7331 386.335 532.4963 386.5676 531.7741 386.6736 531.3735 386.8815 530.8213 387.0562 530.269 387.1317 530.0714 387.3583 529.5752 388.0117 528.2099 388.3117 527.6538 388.4616 527.3347 388.6354 526.8894 388.8475 526.4155 388.9696 526.1943 389.0893 526.0034 389.1639 525.9245 389.2168 525.8878 389.3331 525.8524 389.3083 525.8067 389.3027 525.7817 389.3027 525.7297 389.3132 525.6742 389.2897 525.7394 389.2364 525.8378 389.0959 525.9328 388.925 525.9252 388.6517 525.8364 388.226 525.5826 387.9717 525.4156 387.4348 525.0087 387.0994 524.7671 386.6932 524.4368 386.4874 524.2829 386.2838 524.1183 385.8477 523.7868 385.5149 523.5547 385.3506 523.4221 385.1434 523.2676 385.0153 523.162 384.7675 522.9752 384.6046 522.842 384.0628 522.4257 383.5753 522.0269 383.3161 521.8399 383.1507 521.7049 382.9023 521.5159 382.7743 521.409 382.5671 521.2518 382.3603 521.0832 382.0589 520.8605 381.3825 520.2884 381.1809 520.1145 381.0701 520.0072 380.8805 519.8489 380.6355 519.6216 380.5279 519.5306 380.3901 519.4273 380.1597 519.2347 380.0219 519.1315 379.7506 518.9011 379.5703 518.7605 379.2901 518.5146 379.1497 518.4073 378.8797 518.1762 378.7427 518.071 378.3196 517.6922 377.8709 517.341 377.6825 517.1608 377.5556 517.0107 377.3085 516.8698 377.195 516.7859 376.9339 516.5695 376.7385 516.4294 376.4071 516.1517 375.9031 515.7883 375.4725 515.4303 375.3332 515.3314 375.0585 515.1126 374.8809 514.9828 374.4967 514.6546 374.1979 514.425 374.0064 514.2832 373.7255 514.0193 373.5761 513.8861 373.4474 513.7869 373.1983 513.5717 373.0698 513.4721 372.7772 513.2098 372.6491 513.1102 372.4027 512.8947 372.2426 512.7672 371.8898 512.4432 371.7644 512.3458 371.5173 512.1303 371.3885 512.0306 371.0953 511.7692 370.9668 511.6695 370.718 511.4536 370.5903 511.3541 370.1157 510.9169 369.695 510.5853 369.3147 510.2415 368.8987 509.9138 368.7657 509.7893 368.6223 509.6323 368.3555 509.4127 368.2467 509.3095 368.0029 509.0557 367.6867 508.7619 367.31 508.374 367.0996 508.1755 366.9897 508.0599 366.5682 507.6791 366.1148 507.2203 365.9403 507.0672 365.6916 506.8354 365.59 506.7221 365.4811 506.612 365.3434 506.4917 365.1138 506.2749 364.9765 506.1578 364.6121 505.8032 364.4731 505.6833 363.9944 505.2059 363.6635 504.9181 363.3684 504.5978 363.2611 504.4954 363.0899 504.3468 362.7936 504.0591 362.6579 503.9373 362.5475 503.8233 362.1159 503.4404 361.6785 503.0044 361.4993 502.8482 361.1346 502.4991 360.9539 502.3425 360.5445 501.9309 360.1674 501.604 360.0658 501.5223 359.7983 501.2779 359.6607 501.1639 359.3909 500.9133 359.2191 500.7676 358.923 500.4865 358.7878 500.3746 358.5175 500.1248 358.3794 500.0114 358.1494 499.8013 358.011 499.6878 357.7396 499.4388 357.3304 499.1023 357.059 498.8545 356.9234 498.7433 356.6263 498.465 356.4539 498.3212 356.1829 498.074 356.0465 497.9636 355.8219 497.7609 355.6754 497.6415 355.4032 497.3944 355.2648 497.2821 355.0344 497.0752 354.8959 496.9633 354.6234 496.7186 354.4887 496.6062 354.3423 496.4633 354.2352 496.3484 354.1359 496.2299 354.0813 496.1544 353.7387 495.8634 353.6332 495.7591 350.3966 492.2079 350.2079 492.0028 350.02 491.8235 349.8415 491.5936 349.7474 491.4895 349.6412 491.3872 349.501 491.2784 349.3938 491.1759 349.1872 490.9511 348.7661 490.4595 348.2179 489.9692 347.922 489.6859 347.6496 489.4594 347.2396 489.0964 340.3625 482.6949 339.0639 481.5923 338.8712 481.4436 338.7156 481.3509 338.4936 481.2614 338.2347 481.1837 337.7799 481.0306 336.7497 480.657 336.5657 480.5997 336.4699 480.5766 336.3459 480.5574 336.1482 480.5528 335.9425 480.5674 335.3145 480.6342 335.1107 480.6441 334.9808 480.6374 334.9085 480.6263 334.7087 480.6997 334.5627 480.7254 334.3795 480.7267 334.1357 480.6571 333.7531 480.5108 333.4223 480.4491 333.0941 480.455 332.8868 480.4476 332.7523 480.4265 332.5916 480.384 332.1617 480.2414 331.5171 480.0819 331.2905 480.0386 331.1613 480.0278 331.0299 480.0237 330.149 480.0376 329.8745 480.0285 329.2601 479.9418 328.8418 479.8741 328.6497 479.8497 328.2321 479.7777 327.9647 479.7391 327.8487 479.7318 327.6718 479.7298 326.7157 479.7583 326.4884 479.7504 326.3834 479.7308 326.297 479.6949 326.1888 479.6301 326.0698 479.5332 325.9368 479.3957 325.6704 479.1483 325.4199 478.8834 325.2391 478.716 325.1045 478.5764 324.8333 478.3337 324.5788 478.074 324.438 477.945 324.3685 477.8686 324.3132 477.792 324.2492 477.6833 324.2309 477.6363 324.2174 477.5863 324.2006 477.48 324.1884 477.2539 324.1801 476.3723 324.2257 472.6768 324.4491 469.3932 324.6246 466.7504 324.6576 466.274 324.5696 465.9123 324.4888 465.622 324.4298 465.4514 324.3542 465.2849 324.2097 464.9939 324.0407 464.6909 323.7774 464.2409 323.5178 463.8219 323.286 463.4334 323.2265 463.3233 323.0524 462.9718 322.8492 462.7909 322.2861 462.2446 321.9809 461.9222 321.7199 461.6651 321.4819 461.4446 321.2167 461.1621 320.9567 460.9012 320.7811 460.7435 320.6326 460.6366 320.5612 460.5925 320.4676 460.5464 320.1221 460.4034 319.4632 460.1658 319.0994 460.0508 318.7585 459.9611 318.5374 459.9136 318.232 459.8549 318.0873 459.843 317.8822 459.801 317.7327 459.7857 317.6268 459.758 317.4108 459.6789 317.0471 459.5914 316.4377 459.4145 316.0983 459.2986 315.7017 459.1752 314.8941 458.9424 314.4889 458.8134 314.0952 458.6754 313.7708 458.5353 313.1558 458.2844 313.0142 458.2333 312.9011 458.2061 312.7681 458.1943 312.7008 458.1953 312.5824 458.2092 311.4249 458.456 310.7158 458.7265 310.5117 458.7983 310.3713 458.8283 310.2582 458.8365 310.1681 458.8229 309.9989 458.7633 309.7055 458.6059 309.4511 458.4485 308.9636 458.1739 308.7666 458.0448 308.6152 457.9178 308.3994 457.6964 308.0786 457.4125 307.9947 457.3291 307.6156 456.8744 307.4365 456.6509 307.3657 456.5529 307.2038 456.2955 306.8968 455.7803 306.7641 455.5696 306.5991 455.3255 306.1673 454.6554 306.0535 454.4769 305.8558 454.1539 305.411 453.7416 304.9904 453.335 304.3321 452.6236 304.1689 452.4616 304.0543 452.3647 303.9893 452.3232 303.8224 452.2559 303.6184 452.2083 302.9768 452.148 302.6676 452.1317 302.2386 452.0789 301.8078 452.0017 301.4564 451.9313 301.3478 451.8968 301.2968 451.8722 301.2577 451.8473 301.1903 451.7873 301.0998 451.6601 300.9186 451.3487 300.6444 450.7438 300.4138 450.3316 300.1731 449.8838 300.0597 449.6558 299.9704 449.439 299.7246 448.6926 299.5868 448.2359 299.0225 446.2476 298.8855 445.7954 298.7574 445.4447 298.6621 445.2323 298.2598 444.4618 298.0683 444.0313 297.8858 443.6666 297.5752 443.0073 297.1475 442.1895 296.8383 441.5311 296.653 441.1623 296.4605 440.7461 296.9497 437.4165 296.8422 436.3416 296.4907 435.3754 295.8291 434.3399 295.391 433.6542 293.4024 431.8267 290.8762 430.698 289.7475 429.9993 288.1888 429.0318 287.168 427.639 287.1252 427.581 287.1102 427.518 287.1027 427.3689 287.1261 427.2075 287.1938 426.969 287.2959 426.6744 287.7847 425.414 288.0429 424.6778 288.1596 424.3722 288.2643 424.057 288.7907 422.761 288.9187 422.5088 289.4787 421.3459 289.9176 420.6873 Z"/>
</g>
</svg>